STARTFONT 2.1
COMMENT Font converted from PSF1 to BDF.
FONT -Unknown-VGA08-Medium-R-Normal--8-80-72-72-C-80-ISO8859-1
SIZE 8 72 72
FONTBOUNDINGBOX 8 8 0 -2
STARTPROPERTIES 17
POINT_SIZE 80
PIXEL_SIZE 8
RESOLUTION_X 72
RESOLUTION_Y 72
FONT_ASCENT 6
FONT_DESCENT 2
AVERAGE_WIDTH 80
SPACING "C"
FOUNDRY "Unknown"
FAMILY_NAME "VGA08"
WEIGHT_NAME "Medium"
SLANT "R"
SETWIDTH_NAME "Normal"
ADD_STYLE_NAME ""
CHARSET_REGISTRY "ISO8859"
CHARSET_ENCODING "1"
_GBDFED_INFO "Edited with gbdfed 1.3."
ENDPROPERTIES
CHARS 512
STARTCHAR char0
ENCODING 0
SWIDTH 1000 0
DWIDTH 8 0
BBX 8 8 0 -2
BITMAP
55
AA
55
AA
55
AA
55
AA
ENDCHAR
STARTCHAR char1
ENCODING 1
SWIDTH 1000 0
DWIDTH 8 0
BBX 8 8 0 -2
BITMAP
3E
61
3C
66
66
3C
86
7C
ENDCHAR
STARTCHAR char2
ENCODING 2
SWIDTH 1000 0
DWIDTH 8 0
BBX 8 8 0 -2
BITMAP
7E
81
9D
A1
A1
9D
81
7E
ENDCHAR
STARTCHAR char3
ENCODING 3
SWIDTH 1000 0
DWIDTH 8 0
BBX 8 8 0 -2
BITMAP
00
33
66
CC
66
33
00
00
ENDCHAR
STARTCHAR char4
ENCODING 4
SWIDTH 1000 0
DWIDTH 8 0
BBX 8 8 0 -2
BITMAP
7E
81
B9
A5
B9
A5
81
7E
ENDCHAR
STARTCHAR char5
ENCODING 5
SWIDTH 1000 0
DWIDTH 8 0
BBX 8 8 0 -2
BITMAP
FF
00
00
00
00
00
00
00
ENDCHAR
STARTCHAR char6
ENCODING 6
SWIDTH 1000 0
DWIDTH 8 0
BBX 8 8 0 -2
BITMAP
7F
DB
DB
7B
1B
1B
1B
00
ENDCHAR
STARTCHAR char7
ENCODING 7
SWIDTH 1000 0
DWIDTH 8 0
BBX 8 8 0 -2
BITMAP
00
CC
66
33
66
CC
00
00
ENDCHAR
STARTCHAR char8
ENCODING 8
SWIDTH 1000 0
DWIDTH 8 0
BBX 8 8 0 -2
BITMAP
63
E6
6C
7A
36
6A
DF
06
ENDCHAR
STARTCHAR char9
ENCODING 9
SWIDTH 1000 0
DWIDTH 8 0
BBX 8 8 0 -2
BITMAP
63
E6
6C
7E
33
66
CC
0F
ENDCHAR
STARTCHAR char10
ENCODING 10
SWIDTH 1000 0
DWIDTH 8 0
BBX 8 8 0 -2
BITMAP
E1
32
E4
3A
F6
2A
5F
86
ENDCHAR
STARTCHAR char11
ENCODING 11
SWIDTH 1000 0
DWIDTH 8 0
BBX 8 8 0 -2
BITMAP
18
00
18
18
30
63
3E
00
ENDCHAR
STARTCHAR char12
ENCODING 12
SWIDTH 1000 0
DWIDTH 8 0
BBX 8 8 0 -2
BITMAP
00
00
78
0C
7C
CC
76
0F
ENDCHAR
STARTCHAR char13
ENCODING 13
SWIDTH 1000 0
DWIDTH 8 0
BBX 8 8 0 -2
BITMAP
E6
69
60
6C
76
66
E6
00
ENDCHAR
STARTCHAR char14
ENCODING 14
SWIDTH 1000 0
DWIDTH 8 0
BBX 8 8 0 -2
BITMAP
1E
21
1E
0C
0C
CC
78
00
ENDCHAR
STARTCHAR char15
ENCODING 15
SWIDTH 1000 0
DWIDTH 8 0
BBX 8 8 0 -2
BITMAP
18
18
18
18
1F
18
18
18
ENDCHAR
STARTCHAR char16
ENCODING 16
SWIDTH 1000 0
DWIDTH 8 0
BBX 8 8 0 -2
BITMAP
36
36
36
36
FF
00
00
00
ENDCHAR
STARTCHAR char17
ENCODING 17
SWIDTH 1000 0
DWIDTH 8 0
BBX 8 8 0 -2
BITMAP
00
00
00
00
3F
36
36
36
ENDCHAR
STARTCHAR char18
ENCODING 18
SWIDTH 1000 0
DWIDTH 8 0
BBX 8 8 0 -2
BITMAP
30
40
26
49
0F
01
42
3C
ENDCHAR
STARTCHAR char19
ENCODING 19
SWIDTH 1000 0
DWIDTH 8 0
BBX 8 8 0 -2
BITMAP
00
00
00
01
81
FE
00
10
ENDCHAR
STARTCHAR char20
ENCODING 20
SWIDTH 1000 0
DWIDTH 8 0
BBX 8 8 0 -2
BITMAP
14
00
0C
12
11
0E
00
00
ENDCHAR
STARTCHAR char21
ENCODING 21
SWIDTH 1000 0
DWIDTH 8 0
BBX 8 8 0 -2
BITMAP
00
28
00
01
81
FE
00
00
ENDCHAR
STARTCHAR char22
ENCODING 22
SWIDTH 1000 0
DWIDTH 8 0
BBX 8 8 0 -2
BITMAP
10
28
00
01
81
FE
00
00
ENDCHAR
STARTCHAR char23
ENCODING 23
SWIDTH 1000 0
DWIDTH 8 0
BBX 8 8 0 -2
BITMAP
00
00
00
FC
43
88
80
7C
ENDCHAR
STARTCHAR char24
ENCODING 24
SWIDTH 1000 0
DWIDTH 8 0
BBX 8 8 0 -2
BITMAP
00
00
00
FC
43
80
80
7C
ENDCHAR
STARTCHAR char25
ENCODING 25
SWIDTH 1000 0
DWIDTH 8 0
BBX 8 8 0 -2
BITMAP
00
10
00
FC
43
80
80
7C
ENDCHAR
STARTCHAR char26
ENCODING 26
SWIDTH 1000 0
DWIDTH 8 0
BBX 8 8 0 -2
BITMAP
00
00
04
02
21
3F
00
00
ENDCHAR
STARTCHAR char27
ENCODING 27
SWIDTH 1000 0
DWIDTH 8 0
BBX 8 8 0 -2
BITMAP
00
20
04
02
21
3F
00
00
ENDCHAR
STARTCHAR char28
ENCODING 28
SWIDTH 1000 0
DWIDTH 8 0
BBX 8 8 0 -2
BITMAP
00
00
00
00
01
01
22
1C
ENDCHAR
STARTCHAR char29
ENCODING 29
SWIDTH 1000 0
DWIDTH 8 0
BBX 8 8 0 -2
BITMAP
00
00
02
00
01
01
22
1C
ENDCHAR
STARTCHAR char30
ENCODING 30
SWIDTH 1000 0
DWIDTH 8 0
BBX 8 8 0 -2
BITMAP
00
00
00
49
49
76
80
00
ENDCHAR
STARTCHAR char31
ENCODING 31
SWIDTH 1000 0
DWIDTH 8 0
BBX 8 8 0 -2
BITMAP
08
14
00
49
49
76
80
00
ENDCHAR
STARTCHAR char32
ENCODING 32
SWIDTH 1000 0
DWIDTH 8 0
BBX 8 8 0 -2
BITMAP
00
00
00
00
00
00
00
00
ENDCHAR
STARTCHAR char33
ENCODING 33
SWIDTH 1000 0
DWIDTH 8 0
BBX 8 8 0 -2
BITMAP
18
3C
3C
18
18
00
18
00
ENDCHAR
STARTCHAR char34
ENCODING 34
SWIDTH 1000 0
DWIDTH 8 0
BBX 8 8 0 -2
BITMAP
66
66
24
00
00
00
00
00
ENDCHAR
STARTCHAR char35
ENCODING 35
SWIDTH 1000 0
DWIDTH 8 0
BBX 8 8 0 -2
BITMAP
6C
6C
FE
6C
FE
6C
6C
00
ENDCHAR
STARTCHAR char36
ENCODING 36
SWIDTH 1000 0
DWIDTH 8 0
BBX 8 8 0 -2
BITMAP
18
3E
60
3C
06
7C
18
00
ENDCHAR
STARTCHAR char37
ENCODING 37
SWIDTH 1000 0
DWIDTH 8 0
BBX 8 8 0 -2
BITMAP
00
C6
CC
18
30
66
C6
00
ENDCHAR
STARTCHAR char38
ENCODING 38
SWIDTH 1000 0
DWIDTH 8 0
BBX 8 8 0 -2
BITMAP
38
6C
38
76
DC
CC
76
00
ENDCHAR
STARTCHAR char39
ENCODING 39
SWIDTH 1000 0
DWIDTH 8 0
BBX 8 8 0 -2
BITMAP
18
18
30
00
00
00
00
00
ENDCHAR
STARTCHAR char40
ENCODING 40
SWIDTH 1000 0
DWIDTH 8 0
BBX 8 8 0 -2
BITMAP
0C
18
30
30
30
18
0C
00
ENDCHAR
STARTCHAR char41
ENCODING 41
SWIDTH 1000 0
DWIDTH 8 0
BBX 8 8 0 -2
BITMAP
30
18
0C
0C
0C
18
30
00
ENDCHAR
STARTCHAR char42
ENCODING 42
SWIDTH 1000 0
DWIDTH 8 0
BBX 8 8 0 -2
BITMAP
00
66
3C
FF
3C
66
00
00
ENDCHAR
STARTCHAR char43
ENCODING 43
SWIDTH 1000 0
DWIDTH 8 0
BBX 8 8 0 -2
BITMAP
00
18
18
7E
18
18
00
00
ENDCHAR
STARTCHAR char44
ENCODING 44
SWIDTH 1000 0
DWIDTH 8 0
BBX 8 8 0 -2
BITMAP
00
00
00
00
00
18
18
30
ENDCHAR
STARTCHAR char45
ENCODING 45
SWIDTH 1000 0
DWIDTH 8 0
BBX 8 8 0 -2
BITMAP
00
00
00
7E
00
00
00
00
ENDCHAR
STARTCHAR char46
ENCODING 46
SWIDTH 1000 0
DWIDTH 8 0
BBX 8 8 0 -2
BITMAP
00
00
00
00
00
18
18
00
ENDCHAR
STARTCHAR char47
ENCODING 47
SWIDTH 1000 0
DWIDTH 8 0
BBX 8 8 0 -2
BITMAP
06
0C
18
30
60
C0
80
00
ENDCHAR
STARTCHAR char48
ENCODING 48
SWIDTH 1000 0
DWIDTH 8 0
BBX 8 8 0 -2
BITMAP
38
6C
C6
D6
C6
6C
38
00
ENDCHAR
STARTCHAR char49
ENCODING 49
SWIDTH 1000 0
DWIDTH 8 0
BBX 8 8 0 -2
BITMAP
18
38
18
18
18
18
7E
00
ENDCHAR
STARTCHAR char50
ENCODING 50
SWIDTH 1000 0
DWIDTH 8 0
BBX 8 8 0 -2
BITMAP
7C
C6
06
1C
30
66
FE
00
ENDCHAR
STARTCHAR char51
ENCODING 51
SWIDTH 1000 0
DWIDTH 8 0
BBX 8 8 0 -2
BITMAP
7C
C6
06
3C
06
C6
7C
00
ENDCHAR
STARTCHAR char52
ENCODING 52
SWIDTH 1000 0
DWIDTH 8 0
BBX 8 8 0 -2
BITMAP
1C
3C
6C
CC
FE
0C
1E
00
ENDCHAR
STARTCHAR char53
ENCODING 53
SWIDTH 1000 0
DWIDTH 8 0
BBX 8 8 0 -2
BITMAP
FE
C0
C0
FC
06
C6
7C
00
ENDCHAR
STARTCHAR char54
ENCODING 54
SWIDTH 1000 0
DWIDTH 8 0
BBX 8 8 0 -2
BITMAP
38
60
C0
FC
C6
C6
7C
00
ENDCHAR
STARTCHAR char55
ENCODING 55
SWIDTH 1000 0
DWIDTH 8 0
BBX 8 8 0 -2
BITMAP
FE
C6
0C
18
30
30
30
00
ENDCHAR
STARTCHAR char56
ENCODING 56
SWIDTH 1000 0
DWIDTH 8 0
BBX 8 8 0 -2
BITMAP
7C
C6
C6
7C
C6
C6
7C
00
ENDCHAR
STARTCHAR char57
ENCODING 57
SWIDTH 1000 0
DWIDTH 8 0
BBX 8 8 0 -2
BITMAP
7C
C6
C6
7E
06
0C
78
00
ENDCHAR
STARTCHAR char58
ENCODING 58
SWIDTH 1000 0
DWIDTH 8 0
BBX 8 8 0 -2
BITMAP
00
18
18
00
00
18
18
00
ENDCHAR
STARTCHAR char59
ENCODING 59
SWIDTH 1000 0
DWIDTH 8 0
BBX 8 8 0 -2
BITMAP
00
18
18
00
00
18
18
30
ENDCHAR
STARTCHAR char60
ENCODING 60
SWIDTH 1000 0
DWIDTH 8 0
BBX 8 8 0 -2
BITMAP
06
0C
18
30
18
0C
06
00
ENDCHAR
STARTCHAR char61
ENCODING 61
SWIDTH 1000 0
DWIDTH 8 0
BBX 8 8 0 -2
BITMAP
00
00
7E
00
00
7E
00
00
ENDCHAR
STARTCHAR char62
ENCODING 62
SWIDTH 1000 0
DWIDTH 8 0
BBX 8 8 0 -2
BITMAP
60
30
18
0C
18
30
60
00
ENDCHAR
STARTCHAR char63
ENCODING 63
SWIDTH 1000 0
DWIDTH 8 0
BBX 8 8 0 -2
BITMAP
7C
C6
0C
18
18
00
18
00
ENDCHAR
STARTCHAR char64
ENCODING 64
SWIDTH 1000 0
DWIDTH 8 0
BBX 8 8 0 -2
BITMAP
7C
C6
DE
DE
DE
C0
78
00
ENDCHAR
STARTCHAR char65
ENCODING 65
SWIDTH 1000 0
DWIDTH 8 0
BBX 8 8 0 -2
BITMAP
38
6C
C6
FE
C6
C6
C6
00
ENDCHAR
STARTCHAR char66
ENCODING 66
SWIDTH 1000 0
DWIDTH 8 0
BBX 8 8 0 -2
BITMAP
FC
66
66
7C
66
66
FC
00
ENDCHAR
STARTCHAR char67
ENCODING 67
SWIDTH 1000 0
DWIDTH 8 0
BBX 8 8 0 -2
BITMAP
3C
66
C0
C0
C0
66
3C
00
ENDCHAR
STARTCHAR char68
ENCODING 68
SWIDTH 1000 0
DWIDTH 8 0
BBX 8 8 0 -2
BITMAP
F8
6C
66
66
66
6C
F8
00
ENDCHAR
STARTCHAR char69
ENCODING 69
SWIDTH 1000 0
DWIDTH 8 0
BBX 8 8 0 -2
BITMAP
FE
62
68
78
68
62
FE
00
ENDCHAR
STARTCHAR char70
ENCODING 70
SWIDTH 1000 0
DWIDTH 8 0
BBX 8 8 0 -2
BITMAP
FE
62
68
78
68
60
F0
00
ENDCHAR
STARTCHAR char71
ENCODING 71
SWIDTH 1000 0
DWIDTH 8 0
BBX 8 8 0 -2
BITMAP
3C
66
C0
C0
CE
66
3A
00
ENDCHAR
STARTCHAR char72
ENCODING 72
SWIDTH 1000 0
DWIDTH 8 0
BBX 8 8 0 -2
BITMAP
C6
C6
C6
FE
C6
C6
C6
00
ENDCHAR
STARTCHAR char73
ENCODING 73
SWIDTH 1000 0
DWIDTH 8 0
BBX 8 8 0 -2
BITMAP
3C
18
18
18
18
18
3C
00
ENDCHAR
STARTCHAR char74
ENCODING 74
SWIDTH 1000 0
DWIDTH 8 0
BBX 8 8 0 -2
BITMAP
1E
0C
0C
0C
CC
CC
78
00
ENDCHAR
STARTCHAR char75
ENCODING 75
SWIDTH 1000 0
DWIDTH 8 0
BBX 8 8 0 -2
BITMAP
E6
66
6C
78
6C
66
E6
00
ENDCHAR
STARTCHAR char76
ENCODING 76
SWIDTH 1000 0
DWIDTH 8 0
BBX 8 8 0 -2
BITMAP
F0
60
60
60
62
66
FE
00
ENDCHAR
STARTCHAR char77
ENCODING 77
SWIDTH 1000 0
DWIDTH 8 0
BBX 8 8 0 -2
BITMAP
C6
EE
FE
FE
D6
C6
C6
00
ENDCHAR
STARTCHAR char78
ENCODING 78
SWIDTH 1000 0
DWIDTH 8 0
BBX 8 8 0 -2
BITMAP
C6
E6
F6
DE
CE
C6
C6
00
ENDCHAR
STARTCHAR char79
ENCODING 79
SWIDTH 1000 0
DWIDTH 8 0
BBX 8 8 0 -2
BITMAP
7C
C6
C6
C6
C6
C6
7C
00
ENDCHAR
STARTCHAR char80
ENCODING 80
SWIDTH 1000 0
DWIDTH 8 0
BBX 8 8 0 -2
BITMAP
FC
66
66
7C
60
60
F0
00
ENDCHAR
STARTCHAR char81
ENCODING 81
SWIDTH 1000 0
DWIDTH 8 0
BBX 8 8 0 -2
BITMAP
7C
C6
C6
C6
C6
CE
7C
0E
ENDCHAR
STARTCHAR char82
ENCODING 82
SWIDTH 1000 0
DWIDTH 8 0
BBX 8 8 0 -2
BITMAP
FC
66
66
7C
6C
66
E6
00
ENDCHAR
STARTCHAR char83
ENCODING 83
SWIDTH 1000 0
DWIDTH 8 0
BBX 8 8 0 -2
BITMAP
3C
66
30
18
0C
66
3C
00
ENDCHAR
STARTCHAR char84
ENCODING 84
SWIDTH 1000 0
DWIDTH 8 0
BBX 8 8 0 -2
BITMAP
7E
7E
5A
18
18
18
3C
00
ENDCHAR
STARTCHAR char85
ENCODING 85
SWIDTH 1000 0
DWIDTH 8 0
BBX 8 8 0 -2
BITMAP
C6
C6
C6
C6
C6
C6
7C
00
ENDCHAR
STARTCHAR char86
ENCODING 86
SWIDTH 1000 0
DWIDTH 8 0
BBX 8 8 0 -2
BITMAP
C6
C6
C6
C6
C6
6C
38
00
ENDCHAR
STARTCHAR char87
ENCODING 87
SWIDTH 1000 0
DWIDTH 8 0
BBX 8 8 0 -2
BITMAP
C6
C6
C6
D6
D6
FE
6C
00
ENDCHAR
STARTCHAR char88
ENCODING 88
SWIDTH 1000 0
DWIDTH 8 0
BBX 8 8 0 -2
BITMAP
C6
C6
6C
38
6C
C6
C6
00
ENDCHAR
STARTCHAR char89
ENCODING 89
SWIDTH 1000 0
DWIDTH 8 0
BBX 8 8 0 -2
BITMAP
66
66
66
3C
18
18
3C
00
ENDCHAR
STARTCHAR char90
ENCODING 90
SWIDTH 1000 0
DWIDTH 8 0
BBX 8 8 0 -2
BITMAP
FE
C6
8C
18
32
66
FE
00
ENDCHAR
STARTCHAR char91
ENCODING 91
SWIDTH 1000 0
DWIDTH 8 0
BBX 8 8 0 -2
BITMAP
3C
30
30
30
30
30
3C
00
ENDCHAR
STARTCHAR char92
ENCODING 92
SWIDTH 1000 0
DWIDTH 8 0
BBX 8 8 0 -2
BITMAP
C0
60
30
18
0C
06
02
00
ENDCHAR
STARTCHAR char93
ENCODING 93
SWIDTH 1000 0
DWIDTH 8 0
BBX 8 8 0 -2
BITMAP
3C
0C
0C
0C
0C
0C
3C
00
ENDCHAR
STARTCHAR char94
ENCODING 94
SWIDTH 1000 0
DWIDTH 8 0
BBX 8 8 0 -2
BITMAP
10
38
6C
C6
00
00
00
00
ENDCHAR
STARTCHAR char95
ENCODING 95
SWIDTH 1000 0
DWIDTH 8 0
BBX 8 8 0 -2
BITMAP
00
00
00
00
00
00
00
FF
ENDCHAR
STARTCHAR char96
ENCODING 96
SWIDTH 1000 0
DWIDTH 8 0
BBX 8 8 0 -2
BITMAP
30
18
0C
00
00
00
00
00
ENDCHAR
STARTCHAR char97
ENCODING 97
SWIDTH 1000 0
DWIDTH 8 0
BBX 8 8 0 -2
BITMAP
00
00
78
0C
7C
CC
76
00
ENDCHAR
STARTCHAR char98
ENCODING 98
SWIDTH 1000 0
DWIDTH 8 0
BBX 8 8 0 -2
BITMAP
E0
60
7C
66
66
66
DC
00
ENDCHAR
STARTCHAR char99
ENCODING 99
SWIDTH 1000 0
DWIDTH 8 0
BBX 8 8 0 -2
BITMAP
00
00
7C
C6
C0
C6
7C
00
ENDCHAR
STARTCHAR char100
ENCODING 100
SWIDTH 1000 0
DWIDTH 8 0
BBX 8 8 0 -2
BITMAP
1C
0C
7C
CC
CC
CC
76
00
ENDCHAR
STARTCHAR char101
ENCODING 101
SWIDTH 1000 0
DWIDTH 8 0
BBX 8 8 0 -2
BITMAP
00
00
7C
C6
FE
C0
7C
00
ENDCHAR
STARTCHAR char102
ENCODING 102
SWIDTH 1000 0
DWIDTH 8 0
BBX 8 8 0 -2
BITMAP
3C
66
60
F8
60
60
F0
00
ENDCHAR
STARTCHAR char103
ENCODING 103
SWIDTH 1000 0
DWIDTH 8 0
BBX 8 8 0 -2
BITMAP
00
00
76
CC
CC
7C
0C
F8
ENDCHAR
STARTCHAR char104
ENCODING 104
SWIDTH 1000 0
DWIDTH 8 0
BBX 8 8 0 -2
BITMAP
E0
60
6C
76
66
66
E6
00
ENDCHAR
STARTCHAR char105
ENCODING 105
SWIDTH 1000 0
DWIDTH 8 0
BBX 8 8 0 -2
BITMAP
18
00
38
18
18
18
3C
00
ENDCHAR
STARTCHAR char106
ENCODING 106
SWIDTH 1000 0
DWIDTH 8 0
BBX 8 8 0 -2
BITMAP
06
00
06
06
06
66
66
3C
ENDCHAR
STARTCHAR char107
ENCODING 107
SWIDTH 1000 0
DWIDTH 8 0
BBX 8 8 0 -2
BITMAP
E0
60
66
6C
78
6C
E6
00
ENDCHAR
STARTCHAR char108
ENCODING 108
SWIDTH 1000 0
DWIDTH 8 0
BBX 8 8 0 -2
BITMAP
38
18
18
18
18
18
3C
00
ENDCHAR
STARTCHAR char109
ENCODING 109
SWIDTH 1000 0
DWIDTH 8 0
BBX 8 8 0 -2
BITMAP
00
00
EC
FE
D6
D6
D6
00
ENDCHAR
STARTCHAR char110
ENCODING 110
SWIDTH 1000 0
DWIDTH 8 0
BBX 8 8 0 -2
BITMAP
00
00
DC
66
66
66
66
00
ENDCHAR
STARTCHAR char111
ENCODING 111
SWIDTH 1000 0
DWIDTH 8 0
BBX 8 8 0 -2
BITMAP
00
00
7C
C6
C6
C6
7C
00
ENDCHAR
STARTCHAR char112
ENCODING 112
SWIDTH 1000 0
DWIDTH 8 0
BBX 8 8 0 -2
BITMAP
00
00
DC
66
66
7C
60
F0
ENDCHAR
STARTCHAR char113
ENCODING 113
SWIDTH 1000 0
DWIDTH 8 0
BBX 8 8 0 -2
BITMAP
00
00
76
CC
CC
7C
0C
1E
ENDCHAR
STARTCHAR char114
ENCODING 114
SWIDTH 1000 0
DWIDTH 8 0
BBX 8 8 0 -2
BITMAP
00
00
DC
76
60
60
F0
00
ENDCHAR
STARTCHAR char115
ENCODING 115
SWIDTH 1000 0
DWIDTH 8 0
BBX 8 8 0 -2
BITMAP
00
00
7E
C0
7C
06
FC
00
ENDCHAR
STARTCHAR char116
ENCODING 116
SWIDTH 1000 0
DWIDTH 8 0
BBX 8 8 0 -2
BITMAP
30
30
FC
30
30
36
1C
00
ENDCHAR
STARTCHAR char117
ENCODING 117
SWIDTH 1000 0
DWIDTH 8 0
BBX 8 8 0 -2
BITMAP
00
00
CC
CC
CC
CC
76
00
ENDCHAR
STARTCHAR char118
ENCODING 118
SWIDTH 1000 0
DWIDTH 8 0
BBX 8 8 0 -2
BITMAP
00
00
C6
C6
C6
6C
38
00
ENDCHAR
STARTCHAR char119
ENCODING 119
SWIDTH 1000 0
DWIDTH 8 0
BBX 8 8 0 -2
BITMAP
00
00
C6
D6
D6
FE
6C
00
ENDCHAR
STARTCHAR char120
ENCODING 120
SWIDTH 1000 0
DWIDTH 8 0
BBX 8 8 0 -2
BITMAP
00
00
C6
6C
38
6C
C6
00
ENDCHAR
STARTCHAR char121
ENCODING 121
SWIDTH 1000 0
DWIDTH 8 0
BBX 8 8 0 -2
BITMAP
00
00
C6
C6
C6
7E
06
FC
ENDCHAR
STARTCHAR char122
ENCODING 122
SWIDTH 1000 0
DWIDTH 8 0
BBX 8 8 0 -2
BITMAP
00
00
7E
4C
18
32
7E
00
ENDCHAR
STARTCHAR char123
ENCODING 123
SWIDTH 1000 0
DWIDTH 8 0
BBX 8 8 0 -2
BITMAP
0E
18
18
70
18
18
0E
00
ENDCHAR
STARTCHAR char124
ENCODING 124
SWIDTH 1000 0
DWIDTH 8 0
BBX 8 8 0 -2
BITMAP
18
18
18
18
18
18
18
00
ENDCHAR
STARTCHAR char125
ENCODING 125
SWIDTH 1000 0
DWIDTH 8 0
BBX 8 8 0 -2
BITMAP
70
18
18
0E
18
18
70
00
ENDCHAR
STARTCHAR char126
ENCODING 126
SWIDTH 1000 0
DWIDTH 8 0
BBX 8 8 0 -2
BITMAP
76
DC
00
00
00
00
00
00
ENDCHAR
STARTCHAR char127
ENCODING 127
SWIDTH 1000 0
DWIDTH 8 0
BBX 8 8 0 -2
BITMAP
00
00
00
0E
91
7E
80
00
ENDCHAR
STARTCHAR char128
ENCODING 128
SWIDTH 1000 0
DWIDTH 8 0
BBX 8 8 0 -2
BITMAP
00
08
00
0E
91
7E
80
00
ENDCHAR
STARTCHAR char129
ENCODING 129
SWIDTH 1000 0
DWIDTH 8 0
BBX 8 8 0 -2
BITMAP
20
20
20
2E
31
FE
00
00
ENDCHAR
STARTCHAR char130
ENCODING 130
SWIDTH 1000 0
DWIDTH 8 0
BBX 8 8 0 -2
BITMAP
20
24
20
2E
31
FE
00
00
ENDCHAR
STARTCHAR char131
ENCODING 131
SWIDTH 1000 0
DWIDTH 8 0
BBX 8 8 0 -2
BITMAP
00
0E
10
0F
30
40
40
3E
ENDCHAR
STARTCHAR char132
ENCODING 132
SWIDTH 1000 0
DWIDTH 8 0
BBX 8 8 0 -2
BITMAP
20
0E
10
0F
30
40
40
3E
ENDCHAR
STARTCHAR char133
ENCODING 133
SWIDTH 1000 0
DWIDTH 8 0
BBX 8 8 0 -2
BITMAP
00
00
00
00
00
FF
00
00
ENDCHAR
STARTCHAR char134
ENCODING 134
SWIDTH 1000 0
DWIDTH 8 0
BBX 8 8 0 -2
BITMAP
04
00
06
09
85
FE
00
00
ENDCHAR
STARTCHAR char135
ENCODING 135
SWIDTH 1000 0
DWIDTH 8 0
BBX 8 8 0 -2
BITMAP
0A
00
06
09
0F
81
81
7E
ENDCHAR
STARTCHAR char136
ENCODING 136
SWIDTH 1000 0
DWIDTH 8 0
BBX 8 8 0 -2
BITMAP
01
31
21
11
81
FE
00
00
ENDCHAR
STARTCHAR char137
ENCODING 137
SWIDTH 1000 0
DWIDTH 8 0
BBX 8 8 0 -2
BITMAP
01
01
01
01
21
41
41
3E
ENDCHAR
STARTCHAR char138
ENCODING 138
SWIDTH 1000 0
DWIDTH 8 0
BBX 8 8 0 -2
BITMAP
00
00
0C
12
E9
86
40
20
ENDCHAR
STARTCHAR char139
ENCODING 139
SWIDTH 1000 0
DWIDTH 8 0
BBX 8 8 0 -2
BITMAP
00
00
08
00
41
81
81
7E
ENDCHAR
STARTCHAR char140
ENCODING 140
SWIDTH 1000 0
DWIDTH 8 0
BBX 8 8 0 -2
BITMAP
00
00
0C
12
11
0E
00
00
ENDCHAR
STARTCHAR char141
ENCODING 141
SWIDTH 1000 0
DWIDTH 8 0
BBX 8 8 0 -2
BITMAP
00
00
06
09
0F
01
42
3C
ENDCHAR
STARTCHAR char142
ENCODING 142
SWIDTH 1000 0
DWIDTH 8 0
BBX 8 8 0 -2
BITMAP
00
00
00
06
08
86
81
7E
ENDCHAR
STARTCHAR char143
ENCODING 143
SWIDTH 1000 0
DWIDTH 8 0
BBX 8 8 0 -2
BITMAP
00
00
06
08
86
81
7E
24
ENDCHAR
STARTCHAR char144
ENCODING 144
SWIDTH 1000 0
DWIDTH 8 0
BBX 8 8 0 -2
BITMAP
49
36
00
00
00
00
00
00
ENDCHAR
STARTCHAR char145
ENCODING 145
SWIDTH 1000 0
DWIDTH 8 0
BBX 8 8 0 -2
BITMAP
00
00
07
09
11
0E
00
00
ENDCHAR
STARTCHAR char146
ENCODING 146
SWIDTH 1000 0
DWIDTH 8 0
BBX 8 8 0 -2
BITMAP
00
00
00
00
00
FF
00
FF
ENDCHAR
STARTCHAR char147
ENCODING 147
SWIDTH 1000 0
DWIDTH 8 0
BBX 8 8 0 -2
BITMAP
FF
00
00
00
00
00
00
00
ENDCHAR
STARTCHAR char148
ENCODING 148
SWIDTH 1000 0
DWIDTH 8 0
BBX 8 8 0 -2
BITMAP
3C
42
B9
A5
B9
A5
42
3C
ENDCHAR
STARTCHAR char149
ENCODING 149
SWIDTH 1000 0
DWIDTH 8 0
BBX 8 8 0 -2
BITMAP
1F
10
10
90
50
30
10
00
ENDCHAR
STARTCHAR char150
ENCODING 150
SWIDTH 1000 0
DWIDTH 8 0
BBX 8 8 0 -2
BITMAP
00
24
66
FF
66
24
00
00
ENDCHAR
STARTCHAR char151
ENCODING 151
SWIDTH 1000 0
DWIDTH 8 0
BBX 8 8 0 -2
BITMAP
18
3C
7E
18
7E
3C
18
FF
ENDCHAR
STARTCHAR char152
ENCODING 152
SWIDTH 1000 0
DWIDTH 8 0
BBX 8 8 0 -2
BITMAP
00
00
00
00
FF
00
00
00
ENDCHAR
STARTCHAR char153
ENCODING 153
SWIDTH 1000 0
DWIDTH 8 0
BBX 8 8 0 -2
BITMAP
7E
81
A5
81
BD
99
81
7E
ENDCHAR
STARTCHAR char154
ENCODING 154
SWIDTH 1000 0
DWIDTH 8 0
BBX 8 8 0 -2
BITMAP
7E
FF
DB
FF
C3
E7
FF
7E
ENDCHAR
STARTCHAR char155
ENCODING 155
SWIDTH 1000 0
DWIDTH 8 0
BBX 8 8 0 -2
BITMAP
18
DB
3C
E7
E7
3C
DB
18
ENDCHAR
STARTCHAR char156
ENCODING 156
SWIDTH 1000 0
DWIDTH 8 0
BBX 8 8 0 -2
BITMAP
0F
07
0F
7D
CC
CC
CC
78
ENDCHAR
STARTCHAR char157
ENCODING 157
SWIDTH 1000 0
DWIDTH 8 0
BBX 8 8 0 -2
BITMAP
3F
33
3F
30
30
70
F0
E0
ENDCHAR
STARTCHAR char158
ENCODING 158
SWIDTH 1000 0
DWIDTH 8 0
BBX 8 8 0 -2
BITMAP
38
6C
64
F0
60
66
FC
00
ENDCHAR
STARTCHAR char159
ENCODING 159
SWIDTH 1000 0
DWIDTH 8 0
BBX 8 8 0 -2
BITMAP
18
18
18
18
7E
3C
18
00
ENDCHAR
STARTCHAR char160
ENCODING 160
SWIDTH 1000 0
DWIDTH 8 0
BBX 8 8 0 -2
BITMAP
00
30
60
FE
60
30
00
00
ENDCHAR
STARTCHAR char161
ENCODING 161
SWIDTH 1000 0
DWIDTH 8 0
BBX 8 8 0 -2
BITMAP
00
18
0C
FE
0C
18
00
00
ENDCHAR
STARTCHAR char162
ENCODING 162
SWIDTH 1000 0
DWIDTH 8 0
BBX 8 8 0 -2
BITMAP
18
3C
7E
18
18
18
18
00
ENDCHAR
STARTCHAR char163
ENCODING 163
SWIDTH 1000 0
DWIDTH 8 0
BBX 8 8 0 -2
BITMAP
22
88
22
88
22
88
22
88
ENDCHAR
STARTCHAR char164
ENCODING 164
SWIDTH 1000 0
DWIDTH 8 0
BBX 8 8 0 -2
BITMAP
00
00
3C
3C
3C
3C
00
00
ENDCHAR
STARTCHAR char165
ENCODING 165
SWIDTH 1000 0
DWIDTH 8 0
BBX 8 8 0 -2
BITMAP
38
6C
6C
38
00
00
00
00
ENDCHAR
STARTCHAR char166
ENCODING 166
SWIDTH 1000 0
DWIDTH 8 0
BBX 8 8 0 -2
BITMAP
10
38
7C
FE
7C
38
10
00
ENDCHAR
STARTCHAR char167
ENCODING 167
SWIDTH 1000 0
DWIDTH 8 0
BBX 8 8 0 -2
BITMAP
60
30
18
30
60
00
78
00
ENDCHAR
STARTCHAR char168
ENCODING 168
SWIDTH 1000 0
DWIDTH 8 0
BBX 8 8 0 -2
BITMAP
00
FE
00
FE
00
FE
00
00
ENDCHAR
STARTCHAR char169
ENCODING 169
SWIDTH 1000 0
DWIDTH 8 0
BBX 8 8 0 -2
BITMAP
18
30
60
30
18
00
78
00
ENDCHAR
STARTCHAR char170
ENCODING 170
SWIDTH 1000 0
DWIDTH 8 0
BBX 8 8 0 -2
BITMAP
18
18
18
18
F8
00
00
00
ENDCHAR
STARTCHAR char171
ENCODING 171
SWIDTH 1000 0
DWIDTH 8 0
BBX 8 8 0 -2
BITMAP
18
18
7E
18
18
00
7E
00
ENDCHAR
STARTCHAR char172
ENCODING 172
SWIDTH 1000 0
DWIDTH 8 0
BBX 8 8 0 -2
BITMAP
18
18
18
18
F8
18
18
18
ENDCHAR
STARTCHAR char173
ENCODING 173
SWIDTH 1000 0
DWIDTH 8 0
BBX 8 8 0 -2
BITMAP
00
00
00
00
F8
18
18
18
ENDCHAR
STARTCHAR char174
ENCODING 174
SWIDTH 1000 0
DWIDTH 8 0
BBX 8 8 0 -2
BITMAP
18
18
18
18
18
18
18
18
ENDCHAR
STARTCHAR char175
ENCODING 175
SWIDTH 1000 0
DWIDTH 8 0
BBX 8 8 0 -2
BITMAP
18
00
18
18
3C
3C
18
00
ENDCHAR
STARTCHAR char176
ENCODING 176
SWIDTH 1000 0
DWIDTH 8 0
BBX 8 8 0 -2
BITMAP
18
18
7E
C0
C0
7E
18
18
ENDCHAR
STARTCHAR char177
ENCODING 177
SWIDTH 1000 0
DWIDTH 8 0
BBX 8 8 0 -2
BITMAP
00
C6
7C
C6
C6
7C
C6
00
ENDCHAR
STARTCHAR char178
ENCODING 178
SWIDTH 1000 0
DWIDTH 8 0
BBX 8 8 0 -2
BITMAP
66
66
3C
7E
18
7E
18
18
ENDCHAR
STARTCHAR char179
ENCODING 179
SWIDTH 1000 0
DWIDTH 8 0
BBX 8 8 0 -2
BITMAP
18
18
18
00
00
18
18
18
ENDCHAR
STARTCHAR char180
ENCODING 180
SWIDTH 1000 0
DWIDTH 8 0
BBX 8 8 0 -2
BITMAP
00
C6
00
00
00
00
00
00
ENDCHAR
STARTCHAR char181
ENCODING 181
SWIDTH 1000 0
DWIDTH 8 0
BBX 8 8 0 -2
BITMAP
3C
6C
6C
3E
00
7E
00
00
ENDCHAR
STARTCHAR char182
ENCODING 182
SWIDTH 1000 0
DWIDTH 8 0
BBX 8 8 0 -2
BITMAP
00
00
00
FE
06
06
00
00
ENDCHAR
STARTCHAR char183
ENCODING 183
SWIDTH 1000 0
DWIDTH 8 0
BBX 8 8 0 -2
BITMAP
78
0C
18
30
7C
00
00
00
ENDCHAR
STARTCHAR char184
ENCODING 184
SWIDTH 1000 0
DWIDTH 8 0
BBX 8 8 0 -2
BITMAP
78
0C
38
0C
78
00
00
00
ENDCHAR
STARTCHAR char185
ENCODING 185
SWIDTH 1000 0
DWIDTH 8 0
BBX 8 8 0 -2
BITMAP
0C
18
30
00
00
00
00
00
ENDCHAR
STARTCHAR char186
ENCODING 186
SWIDTH 1000 0
DWIDTH 8 0
BBX 8 8 0 -2
BITMAP
00
00
66
66
66
66
7C
C0
ENDCHAR
STARTCHAR char187
ENCODING 187
SWIDTH 1000 0
DWIDTH 8 0
BBX 8 8 0 -2
BITMAP
00
00
00
18
00
00
00
00
ENDCHAR
STARTCHAR char188
ENCODING 188
SWIDTH 1000 0
DWIDTH 8 0
BBX 8 8 0 -2
BITMAP
00
00
00
00
00
18
0C
38
ENDCHAR
STARTCHAR char189
ENCODING 189
SWIDTH 1000 0
DWIDTH 8 0
BBX 8 8 0 -2
BITMAP
18
38
18
18
3C
00
00
00
ENDCHAR
STARTCHAR char190
ENCODING 190
SWIDTH 1000 0
DWIDTH 8 0
BBX 8 8 0 -2
BITMAP
38
6C
6C
38
00
7C
00
00
ENDCHAR
STARTCHAR char191
ENCODING 191
SWIDTH 1000 0
DWIDTH 8 0
BBX 8 8 0 -2
BITMAP
18
0C
38
6C
C6
FE
C6
00
ENDCHAR
STARTCHAR char192
ENCODING 192
SWIDTH 1000 0
DWIDTH 8 0
BBX 8 8 0 -2
BITMAP
00
00
00
00
FF
00
00
00
ENDCHAR
STARTCHAR char193
ENCODING 193
SWIDTH 1000 0
DWIDTH 8 0
BBX 8 8 0 -2
BITMAP
36
36
F7
00
F7
36
36
36
ENDCHAR
STARTCHAR char194
ENCODING 194
SWIDTH 1000 0
DWIDTH 8 0
BBX 8 8 0 -2
BITMAP
18
18
18
18
FF
18
18
18
ENDCHAR
STARTCHAR char195
ENCODING 195
SWIDTH 1000 0
DWIDTH 8 0
BBX 8 8 0 -2
BITMAP
18
18
18
18
1F
00
00
00
ENDCHAR
STARTCHAR char196
ENCODING 196
SWIDTH 1000 0
DWIDTH 8 0
BBX 8 8 0 -2
BITMAP
10
10
FF
10
FF
10
10
10
ENDCHAR
STARTCHAR char197
ENCODING 197
SWIDTH 1000 0
DWIDTH 8 0
BBX 8 8 0 -2
BITMAP
FF
FF
FF
FF
FF
FF
FF
FF
ENDCHAR
STARTCHAR char198
ENCODING 198
SWIDTH 1000 0
DWIDTH 8 0
BBX 8 8 0 -2
BITMAP
00
00
00
00
FF
18
18
18
ENDCHAR
STARTCHAR char199
ENCODING 199
SWIDTH 1000 0
DWIDTH 8 0
BBX 8 8 0 -2
BITMAP
18
18
18
18
1F
18
18
18
ENDCHAR
STARTCHAR char200
ENCODING 200
SWIDTH 1000 0
DWIDTH 8 0
BBX 8 8 0 -2
BITMAP
18
18
18
18
FF
00
00
00
ENDCHAR
STARTCHAR char201
ENCODING 201
SWIDTH 1000 0
DWIDTH 8 0
BBX 8 8 0 -2
BITMAP
00
00
00
00
1F
18
18
18
ENDCHAR
STARTCHAR char202
ENCODING 202
SWIDTH 1000 0
DWIDTH 8 0
BBX 8 8 0 -2
BITMAP
30
60
38
6C
C6
FE
C6
00
ENDCHAR
STARTCHAR char203
ENCODING 203
SWIDTH 1000 0
DWIDTH 8 0
BBX 8 8 0 -2
BITMAP
7C
82
38
6C
C6
FE
C6
00
ENDCHAR
STARTCHAR char204
ENCODING 204
SWIDTH 1000 0
DWIDTH 8 0
BBX 8 8 0 -2
BITMAP
76
DC
38
6C
C6
FE
C6
00
ENDCHAR
STARTCHAR char205
ENCODING 205
SWIDTH 1000 0
DWIDTH 8 0
BBX 8 8 0 -2
BITMAP
C6
38
6C
C6
FE
C6
C6
00
ENDCHAR
STARTCHAR char206
ENCODING 206
SWIDTH 1000 0
DWIDTH 8 0
BBX 8 8 0 -2
BITMAP
38
00
7C
C6
FE
C6
C6
00
ENDCHAR
STARTCHAR char207
ENCODING 207
SWIDTH 1000 0
DWIDTH 8 0
BBX 8 8 0 -2
BITMAP
3E
6C
CC
FE
CC
CC
CE
00
ENDCHAR
STARTCHAR char208
ENCODING 208
SWIDTH 1000 0
DWIDTH 8 0
BBX 8 8 0 -2
BITMAP
7C
C6
C0
C0
C6
7C
18
30
ENDCHAR
STARTCHAR char209
ENCODING 209
SWIDTH 1000 0
DWIDTH 8 0
BBX 8 8 0 -2
BITMAP
30
18
FE
C0
FC
C0
FE
00
ENDCHAR
STARTCHAR char210
ENCODING 210
SWIDTH 1000 0
DWIDTH 8 0
BBX 8 8 0 -2
BITMAP
18
30
FE
C0
F8
C0
FE
00
ENDCHAR
STARTCHAR char211
ENCODING 211
SWIDTH 1000 0
DWIDTH 8 0
BBX 8 8 0 -2
BITMAP
7C
82
FE
C0
FC
C0
FE
00
ENDCHAR
STARTCHAR char212
ENCODING 212
SWIDTH 1000 0
DWIDTH 8 0
BBX 8 8 0 -2
BITMAP
C6
00
FE
C0
FC
C0
FE
00
ENDCHAR
STARTCHAR char213
ENCODING 213
SWIDTH 1000 0
DWIDTH 8 0
BBX 8 8 0 -2
BITMAP
30
18
3C
18
18
18
3C
00
ENDCHAR
STARTCHAR char214
ENCODING 214
SWIDTH 1000 0
DWIDTH 8 0
BBX 8 8 0 -2
BITMAP
0C
18
3C
18
18
18
3C
00
ENDCHAR
STARTCHAR char215
ENCODING 215
SWIDTH 1000 0
DWIDTH 8 0
BBX 8 8 0 -2
BITMAP
3C
42
3C
18
18
18
3C
00
ENDCHAR
STARTCHAR char216
ENCODING 216
SWIDTH 1000 0
DWIDTH 8 0
BBX 8 8 0 -2
BITMAP
66
00
3C
18
18
18
3C
00
ENDCHAR
STARTCHAR char217
ENCODING 217
SWIDTH 1000 0
DWIDTH 8 0
BBX 8 8 0 -2
BITMAP
F8
6C
66
F6
66
6C
F8
00
ENDCHAR
STARTCHAR char218
ENCODING 218
SWIDTH 1000 0
DWIDTH 8 0
BBX 8 8 0 -2
BITMAP
76
DC
00
E6
F6
DE
CE
00
ENDCHAR
STARTCHAR char219
ENCODING 219
SWIDTH 1000 0
DWIDTH 8 0
BBX 8 8 0 -2
BITMAP
0C
06
38
6C
C6
6C
38
00
ENDCHAR
STARTCHAR char220
ENCODING 220
SWIDTH 1000 0
DWIDTH 8 0
BBX 8 8 0 -2
BITMAP
30
60
38
6C
C6
6C
38
00
ENDCHAR
STARTCHAR char221
ENCODING 221
SWIDTH 1000 0
DWIDTH 8 0
BBX 8 8 0 -2
BITMAP
7C
82
38
6C
C6
6C
38
00
ENDCHAR
STARTCHAR char222
ENCODING 222
SWIDTH 1000 0
DWIDTH 8 0
BBX 8 8 0 -2
BITMAP
76
DC
38
6C
C6
6C
38
00
ENDCHAR
STARTCHAR char223
ENCODING 223
SWIDTH 1000 0
DWIDTH 8 0
BBX 8 8 0 -2
BITMAP
C6
38
6C
C6
C6
6C
38
00
ENDCHAR
STARTCHAR char224
ENCODING 224
SWIDTH 1000 0
DWIDTH 8 0
BBX 8 8 0 -2
BITMAP
00
C6
6C
38
6C
C6
00
00
ENDCHAR
STARTCHAR char225
ENCODING 225
SWIDTH 1000 0
DWIDTH 8 0
BBX 8 8 0 -2
BITMAP
7C
C6
CE
D6
E6
C6
7C
00
ENDCHAR
STARTCHAR char226
ENCODING 226
SWIDTH 1000 0
DWIDTH 8 0
BBX 8 8 0 -2
BITMAP
60
30
C6
C6
C6
C6
7C
00
ENDCHAR
STARTCHAR char227
ENCODING 227
SWIDTH 1000 0
DWIDTH 8 0
BBX 8 8 0 -2
BITMAP
18
30
C6
C6
C6
C6
7C
00
ENDCHAR
STARTCHAR char228
ENCODING 228
SWIDTH 1000 0
DWIDTH 8 0
BBX 8 8 0 -2
BITMAP
7C
82
00
C6
C6
C6
7C
00
ENDCHAR
STARTCHAR char229
ENCODING 229
SWIDTH 1000 0
DWIDTH 8 0
BBX 8 8 0 -2
BITMAP
C6
00
C6
C6
C6
C6
7C
00
ENDCHAR
STARTCHAR char230
ENCODING 230
SWIDTH 1000 0
DWIDTH 8 0
BBX 8 8 0 -2
BITMAP
0C
18
66
66
3C
18
3C
00
ENDCHAR
STARTCHAR char231
ENCODING 231
SWIDTH 1000 0
DWIDTH 8 0
BBX 8 8 0 -2
BITMAP
F0
60
7C
66
7C
60
F0
00
ENDCHAR
STARTCHAR char232
ENCODING 232
SWIDTH 1000 0
DWIDTH 8 0
BBX 8 8 0 -2
BITMAP
78
CC
CC
D8
CC
C6
CC
00
ENDCHAR
STARTCHAR char233
ENCODING 233
SWIDTH 1000 0
DWIDTH 8 0
BBX 8 8 0 -2
BITMAP
30
18
78
0C
7C
CC
76
00
ENDCHAR
STARTCHAR char234
ENCODING 234
SWIDTH 1000 0
DWIDTH 8 0
BBX 8 8 0 -2
BITMAP
18
30
78
0C
7C
CC
76
00
ENDCHAR
STARTCHAR char235
ENCODING 235
SWIDTH 1000 0
DWIDTH 8 0
BBX 8 8 0 -2
BITMAP
7C
82
78
0C
7C
CC
76
00
ENDCHAR
STARTCHAR char236
ENCODING 236
SWIDTH 1000 0
DWIDTH 8 0
BBX 8 8 0 -2
BITMAP
76
DC
7C
06
7E
C6
7E
00
ENDCHAR
STARTCHAR char237
ENCODING 237
SWIDTH 1000 0
DWIDTH 8 0
BBX 8 8 0 -2
BITMAP
C6
00
78
0C
7C
CC
76
00
ENDCHAR
STARTCHAR char238
ENCODING 238
SWIDTH 1000 0
DWIDTH 8 0
BBX 8 8 0 -2
BITMAP
38
00
78
0C
7C
CC
76
00
ENDCHAR
STARTCHAR char239
ENCODING 239
SWIDTH 1000 0
DWIDTH 8 0
BBX 8 8 0 -2
BITMAP
00
00
7E
18
7E
D8
7E
00
ENDCHAR
STARTCHAR char240
ENCODING 240
SWIDTH 1000 0
DWIDTH 8 0
BBX 8 8 0 -2
BITMAP
00
00
7C
C0
C0
7C
30
60
ENDCHAR
STARTCHAR char241
ENCODING 241
SWIDTH 1000 0
DWIDTH 8 0
BBX 8 8 0 -2
BITMAP
30
18
7C
C6
FE
C0
7C
00
ENDCHAR
STARTCHAR char242
ENCODING 242
SWIDTH 1000 0
DWIDTH 8 0
BBX 8 8 0 -2
BITMAP
0C
18
7C
C6
FE
C0
7C
00
ENDCHAR
STARTCHAR char243
ENCODING 243
SWIDTH 1000 0
DWIDTH 8 0
BBX 8 8 0 -2
BITMAP
7C
82
7C
C6
FE
C0
7C
00
ENDCHAR
STARTCHAR char244
ENCODING 244
SWIDTH 1000 0
DWIDTH 8 0
BBX 8 8 0 -2
BITMAP
C6
00
7C
C6
FE
C0
7C
00
ENDCHAR
STARTCHAR char245
ENCODING 245
SWIDTH 1000 0
DWIDTH 8 0
BBX 8 8 0 -2
BITMAP
30
18
00
38
18
18
3C
00
ENDCHAR
STARTCHAR char246
ENCODING 246
SWIDTH 1000 0
DWIDTH 8 0
BBX 8 8 0 -2
BITMAP
0C
18
00
38
18
18
3C
00
ENDCHAR
STARTCHAR char247
ENCODING 247
SWIDTH 1000 0
DWIDTH 8 0
BBX 8 8 0 -2
BITMAP
7C
82
38
18
18
18
3C
00
ENDCHAR
STARTCHAR char248
ENCODING 248
SWIDTH 1000 0
DWIDTH 8 0
BBX 8 8 0 -2
BITMAP
66
00
38
18
18
18
3C
00
ENDCHAR
STARTCHAR char249
ENCODING 249
SWIDTH 1000 0
DWIDTH 8 0
BBX 8 8 0 -2
BITMAP
30
7E
0C
7C
CC
CC
78
00
ENDCHAR
STARTCHAR char250
ENCODING 250
SWIDTH 1000 0
DWIDTH 8 0
BBX 8 8 0 -2
BITMAP
76
DC
00
DC
66
66
66
00
ENDCHAR
STARTCHAR char251
ENCODING 251
SWIDTH 1000 0
DWIDTH 8 0
BBX 8 8 0 -2
BITMAP
30
18
7C
C6
C6
C6
7C
00
ENDCHAR
STARTCHAR char252
ENCODING 252
SWIDTH 1000 0
DWIDTH 8 0
BBX 8 8 0 -2
BITMAP
0C
18
7C
C6
C6
C6
7C
00
ENDCHAR
STARTCHAR char253
ENCODING 253
SWIDTH 1000 0
DWIDTH 8 0
BBX 8 8 0 -2
BITMAP
7C
82
7C
C6
C6
C6
7C
00
ENDCHAR
STARTCHAR char254
ENCODING 254
SWIDTH 1000 0
DWIDTH 8 0
BBX 8 8 0 -2
BITMAP
76
DC
7C
C6
C6
C6
7C
00
ENDCHAR
STARTCHAR char255
ENCODING 255
SWIDTH 1000 0
DWIDTH 8 0
BBX 8 8 0 -2
BITMAP
C6
00
7C
C6
C6
C6
7C
00
ENDCHAR
STARTCHAR char256
ENCODING 256
SWIDTH 1000 0
DWIDTH 8 0
BBX 8 8 0 -2
BITMAP
00
18
00
7E
00
18
00
00
ENDCHAR
STARTCHAR char257
ENCODING 257
SWIDTH 1000 0
DWIDTH 8 0
BBX 8 8 0 -2
BITMAP
00
00
7C
CE
D6
E6
7C
00
ENDCHAR
STARTCHAR char258
ENCODING 258
SWIDTH 1000 0
DWIDTH 8 0
BBX 8 8 0 -2
BITMAP
60
30
CC
CC
CC
CC
76
00
ENDCHAR
STARTCHAR char259
ENCODING 259
SWIDTH 1000 0
DWIDTH 8 0
BBX 8 8 0 -2
BITMAP
18
30
CC
CC
CC
CC
76
00
ENDCHAR
STARTCHAR char260
ENCODING 260
SWIDTH 1000 0
DWIDTH 8 0
BBX 8 8 0 -2
BITMAP
78
84
00
CC
CC
CC
76
00
ENDCHAR
STARTCHAR char261
ENCODING 261
SWIDTH 1000 0
DWIDTH 8 0
BBX 8 8 0 -2
BITMAP
CC
00
CC
CC
CC
CC
76
00
ENDCHAR
STARTCHAR char262
ENCODING 262
SWIDTH 1000 0
DWIDTH 8 0
BBX 8 8 0 -2
BITMAP
18
30
C6
C6
C6
7E
06
FC
ENDCHAR
STARTCHAR char263
ENCODING 263
SWIDTH 1000 0
DWIDTH 8 0
BBX 8 8 0 -2
BITMAP
E0
60
7C
66
66
7C
60
F0
ENDCHAR
STARTCHAR char264
ENCODING 264
SWIDTH 1000 0
DWIDTH 8 0
BBX 8 8 0 -2
BITMAP
C6
00
C6
C6
C6
7E
06
FC
ENDCHAR
STARTCHAR char265
ENCODING 265
SWIDTH 1000 0
DWIDTH 8 0
BBX 8 8 0 -2
BITMAP
7C
00
7C
C6
FE
C6
C6
00
ENDCHAR
STARTCHAR char266
ENCODING 266
SWIDTH 1000 0
DWIDTH 8 0
BBX 8 8 0 -2
BITMAP
7C
00
78
0C
7C
CC
7E
00
ENDCHAR
STARTCHAR char267
ENCODING 267
SWIDTH 1000 0
DWIDTH 8 0
BBX 8 8 0 -2
BITMAP
C6
7C
7C
C6
FE
C6
C6
00
ENDCHAR
STARTCHAR char268
ENCODING 268
SWIDTH 1000 0
DWIDTH 8 0
BBX 8 8 0 -2
BITMAP
CC
78
78
0C
7C
CC
76
00
ENDCHAR
STARTCHAR char269
ENCODING 269
SWIDTH 1000 0
DWIDTH 8 0
BBX 8 8 0 -2
BITMAP
38
6C
C6
FE
C6
D6
18
0E
ENDCHAR
STARTCHAR char270
ENCODING 270
SWIDTH 1000 0
DWIDTH 8 0
BBX 8 8 0 -2
BITMAP
0C
18
7C
C6
C0
C6
7C
00
ENDCHAR
STARTCHAR char271
ENCODING 271
SWIDTH 1000 0
DWIDTH 8 0
BBX 8 8 0 -2
BITMAP
18
30
78
CC
C0
CC
78
00
ENDCHAR
STARTCHAR char272
ENCODING 272
SWIDTH 1000 0
DWIDTH 8 0
BBX 8 8 0 -2
BITMAP
7C
82
7C
C6
C0
C6
7C
00
ENDCHAR
STARTCHAR char273
ENCODING 273
SWIDTH 1000 0
DWIDTH 8 0
BBX 8 8 0 -2
BITMAP
78
84
78
CC
C0
CC
78
00
ENDCHAR
STARTCHAR char274
ENCODING 274
SWIDTH 1000 0
DWIDTH 8 0
BBX 8 8 0 -2
BITMAP
18
00
7C
C6
C0
C6
7C
00
ENDCHAR
STARTCHAR char275
ENCODING 275
SWIDTH 1000 0
DWIDTH 8 0
BBX 8 8 0 -2
BITMAP
30
00
78
CC
C0
CC
78
00
ENDCHAR
STARTCHAR char276
ENCODING 276
SWIDTH 1000 0
DWIDTH 8 0
BBX 8 8 0 -2
BITMAP
66
3C
7C
C6
C0
C6
7C
00
ENDCHAR
STARTCHAR char277
ENCODING 277
SWIDTH 1000 0
DWIDTH 8 0
BBX 8 8 0 -2
BITMAP
66
3C
3C
66
60
66
3C
00
ENDCHAR
STARTCHAR char278
ENCODING 278
SWIDTH 1000 0
DWIDTH 8 0
BBX 8 8 0 -2
BITMAP
CC
78
FC
66
66
66
FC
00
ENDCHAR
STARTCHAR char279
ENCODING 279
SWIDTH 1000 0
DWIDTH 8 0
BBX 8 8 0 -2
BITMAP
96
66
06
7E
C6
C6
7E
00
ENDCHAR
STARTCHAR char280
ENCODING 280
SWIDTH 1000 0
DWIDTH 8 0
BBX 8 8 0 -2
BITMAP
0C
3E
0C
7C
CC
CC
76
00
ENDCHAR
STARTCHAR char281
ENCODING 281
SWIDTH 1000 0
DWIDTH 8 0
BBX 8 8 0 -2
BITMAP
78
00
FC
60
78
60
FC
00
ENDCHAR
STARTCHAR char282
ENCODING 282
SWIDTH 1000 0
DWIDTH 8 0
BBX 8 8 0 -2
BITMAP
78
00
78
CC
FC
C0
78
00
ENDCHAR
STARTCHAR char283
ENCODING 283
SWIDTH 1000 0
DWIDTH 8 0
BBX 8 8 0 -2
BITMAP
18
00
FE
C0
F8
C0
FE
00
ENDCHAR
STARTCHAR char284
ENCODING 284
SWIDTH 1000 0
DWIDTH 8 0
BBX 8 8 0 -2
BITMAP
30
00
78
CC
FC
C0
78
00
ENDCHAR
STARTCHAR char285
ENCODING 285
SWIDTH 1000 0
DWIDTH 8 0
BBX 8 8 0 -2
BITMAP
FE
C0
C0
F8
C0
C0
FE
1C
ENDCHAR
STARTCHAR char286
ENCODING 286
SWIDTH 1000 0
DWIDTH 8 0
BBX 8 8 0 -2
BITMAP
00
00
78
CC
FC
C0
78
1C
ENDCHAR
STARTCHAR char287
ENCODING 287
SWIDTH 1000 0
DWIDTH 8 0
BBX 8 8 0 -2
BITMAP
CC
78
FE
C0
F8
C0
FE
00
ENDCHAR
STARTCHAR char288
ENCODING 288
SWIDTH 1000 0
DWIDTH 8 0
BBX 8 8 0 -2
BITMAP
CC
78
78
CC
FC
C0
78
00
ENDCHAR
STARTCHAR char289
ENCODING 289
SWIDTH 1000 0
DWIDTH 8 0
BBX 8 8 0 -2
BITMAP
3C
42
3C
66
C0
CE
66
3E
ENDCHAR
STARTCHAR char290
ENCODING 290
SWIDTH 1000 0
DWIDTH 8 0
BBX 8 8 0 -2
BITMAP
38
6C
00
7E
CC
7C
0C
F8
ENDCHAR
STARTCHAR char291
ENCODING 291
SWIDTH 1000 0
DWIDTH 8 0
BBX 8 8 0 -2
BITMAP
66
3C
66
C0
CE
C6
7C
00
ENDCHAR
STARTCHAR char292
ENCODING 292
SWIDTH 1000 0
DWIDTH 8 0
BBX 8 8 0 -2
BITMAP
6C
38
76
CC
CC
7C
0C
F8
ENDCHAR
STARTCHAR char293
ENCODING 293
SWIDTH 1000 0
DWIDTH 8 0
BBX 8 8 0 -2
BITMAP
18
00
3C
66
C0
CE
66
3E
ENDCHAR
STARTCHAR char294
ENCODING 294
SWIDTH 1000 0
DWIDTH 8 0
BBX 8 8 0 -2
BITMAP
00
18
00
7E
CC
7C
0C
F8
ENDCHAR
STARTCHAR char295
ENCODING 295
SWIDTH 1000 0
DWIDTH 8 0
BBX 8 8 0 -2
BITMAP
3C
66
C0
CE
66
3E
18
70
ENDCHAR
STARTCHAR char296
ENCODING 296
SWIDTH 1000 0
DWIDTH 8 0
BBX 8 8 0 -2
BITMAP
38
60
30
7E
CC
7C
0C
F8
ENDCHAR
STARTCHAR char297
ENCODING 297
SWIDTH 1000 0
DWIDTH 8 0
BBX 8 8 0 -2
BITMAP
30
48
00
CC
FC
CC
CC
00
ENDCHAR
STARTCHAR char298
ENCODING 298
SWIDTH 1000 0
DWIDTH 8 0
BBX 8 8 0 -2
BITMAP
6C
FE
6C
7C
6C
6C
6C
00
ENDCHAR
STARTCHAR char299
ENCODING 299
SWIDTH 1000 0
DWIDTH 8 0
BBX 8 8 0 -2
BITMAP
E0
60
F0
6C
76
66
E6
00
ENDCHAR
STARTCHAR char300
ENCODING 300
SWIDTH 1000 0
DWIDTH 8 0
BBX 8 8 0 -2
BITMAP
76
DC
78
30
30
30
78
00
ENDCHAR
STARTCHAR char301
ENCODING 301
SWIDTH 1000 0
DWIDTH 8 0
BBX 8 8 0 -2
BITMAP
76
DC
00
70
30
30
78
00
ENDCHAR
STARTCHAR char302
ENCODING 302
SWIDTH 1000 0
DWIDTH 8 0
BBX 8 8 0 -2
BITMAP
78
00
78
30
30
30
78
00
ENDCHAR
STARTCHAR char303
ENCODING 303
SWIDTH 1000 0
DWIDTH 8 0
BBX 8 8 0 -2
BITMAP
00
78
00
70
30
30
78
00
ENDCHAR
STARTCHAR char304
ENCODING 304
SWIDTH 1000 0
DWIDTH 8 0
BBX 8 8 0 -2
BITMAP
78
30
30
30
30
78
30
1C
ENDCHAR
STARTCHAR char305
ENCODING 305
SWIDTH 1000 0
DWIDTH 8 0
BBX 8 8 0 -2
BITMAP
30
00
70
30
30
78
30
1C
ENDCHAR
STARTCHAR char306
ENCODING 306
SWIDTH 1000 0
DWIDTH 8 0
BBX 8 8 0 -2
BITMAP
18
00
3C
18
18
18
3C
00
ENDCHAR
STARTCHAR char307
ENCODING 307
SWIDTH 1000 0
DWIDTH 8 0
BBX 8 8 0 -2
BITMAP
00
00
38
18
18
18
3C
00
ENDCHAR
STARTCHAR char308
ENCODING 308
SWIDTH 1000 0
DWIDTH 8 0
BBX 8 8 0 -2
BITMAP
1C
36
00
0C
0C
CC
CC
78
ENDCHAR
STARTCHAR char309
ENCODING 309
SWIDTH 1000 0
DWIDTH 8 0
BBX 8 8 0 -2
BITMAP
0C
18
7C
C6
C6
C6
7C
00
ENDCHAR
STARTCHAR char310
ENCODING 310
SWIDTH 1000 0
DWIDTH 8 0
BBX 8 8 0 -2
BITMAP
00
0C
18
78
CC
CC
78
00
ENDCHAR
STARTCHAR char311
ENCODING 311
SWIDTH 1000 0
DWIDTH 8 0
BBX 8 8 0 -2
BITMAP
00
00
E6
6C
78
6C
E6
00
ENDCHAR
STARTCHAR char312
ENCODING 312
SWIDTH 1000 0
DWIDTH 8 0
BBX 8 8 0 -2
BITMAP
CC
D8
C0
C0
C0
C0
FE
00
ENDCHAR
STARTCHAR char313
ENCODING 313
SWIDTH 1000 0
DWIDTH 8 0
BBX 8 8 0 -2
BITMAP
CC
D8
C0
C0
C0
C0
78
00
ENDCHAR
STARTCHAR char314
ENCODING 314
SWIDTH 1000 0
DWIDTH 8 0
BBX 8 8 0 -2
BITMAP
F0
60
60
62
66
FE
18
70
ENDCHAR
STARTCHAR char315
ENCODING 315
SWIDTH 1000 0
DWIDTH 8 0
BBX 8 8 0 -2
BITMAP
70
30
30
30
30
78
30
E0
ENDCHAR
STARTCHAR char316
ENCODING 316
SWIDTH 1000 0
DWIDTH 8 0
BBX 8 8 0 -2
BITMAP
F6
DC
C0
C0
C0
C0
FE
00
ENDCHAR
STARTCHAR char317
ENCODING 317
SWIDTH 1000 0
DWIDTH 8 0
BBX 8 8 0 -2
BITMAP
F6
DC
C0
C0
C0
C0
78
00
ENDCHAR
STARTCHAR char318
ENCODING 318
SWIDTH 1000 0
DWIDTH 8 0
BBX 8 8 0 -2
BITMAP
60
6C
78
70
60
E0
7E
00
ENDCHAR
STARTCHAR char319
ENCODING 319
SWIDTH 1000 0
DWIDTH 8 0
BBX 8 8 0 -2
BITMAP
30
36
3C
38
30
70
DC
00
ENDCHAR
STARTCHAR char320
ENCODING 320
SWIDTH 1000 0
DWIDTH 8 0
BBX 8 8 0 -2
BITMAP
F0
60
60
62
66
FE
18
70
ENDCHAR
STARTCHAR char321
ENCODING 321
SWIDTH 1000 0
DWIDTH 8 0
BBX 8 8 0 -2
BITMAP
0C
18
DC
E6
C6
C6
C6
00
ENDCHAR
STARTCHAR char322
ENCODING 322
SWIDTH 1000 0
DWIDTH 8 0
BBX 8 8 0 -2
BITMAP
00
00
E6
F6
DE
CE
18
70
ENDCHAR
STARTCHAR char323
ENCODING 323
SWIDTH 1000 0
DWIDTH 8 0
BBX 8 8 0 -2
BITMAP
00
00
DC
E6
C6
C6
18
70
ENDCHAR
STARTCHAR char324
ENCODING 324
SWIDTH 1000 0
DWIDTH 8 0
BBX 8 8 0 -2
BITMAP
24
18
E6
F6
DE
CE
C6
00
ENDCHAR
STARTCHAR char325
ENCODING 325
SWIDTH 1000 0
DWIDTH 8 0
BBX 8 8 0 -2
BITMAP
66
3C
DC
E6
C6
C6
C6
00
ENDCHAR
STARTCHAR char326
ENCODING 326
SWIDTH 1000 0
DWIDTH 8 0
BBX 8 8 0 -2
BITMAP
DC
FE
F6
C6
C6
C6
DC
00
ENDCHAR
STARTCHAR char327
ENCODING 327
SWIDTH 1000 0
DWIDTH 8 0
BBX 8 8 0 -2
BITMAP
00
DC
FE
F6
C6
06
1C
00
ENDCHAR
STARTCHAR char328
ENCODING 328
SWIDTH 1000 0
DWIDTH 8 0
BBX 8 8 0 -2
BITMAP
7C
00
7C
C6
C6
C6
7C
00
ENDCHAR
STARTCHAR char329
ENCODING 329
SWIDTH 1000 0
DWIDTH 8 0
BBX 8 8 0 -2
BITMAP
00
78
00
78
CC
CC
78
00
ENDCHAR
STARTCHAR char330
ENCODING 330
SWIDTH 1000 0
DWIDTH 8 0
BBX 8 8 0 -2
BITMAP
66
CC
7C
C6
C6
C6
7C
00
ENDCHAR
STARTCHAR char331
ENCODING 331
SWIDTH 1000 0
DWIDTH 8 0
BBX 8 8 0 -2
BITMAP
00
66
CC
78
CC
CC
78
00
ENDCHAR
STARTCHAR char332
ENCODING 332
SWIDTH 1000 0
DWIDTH 8 0
BBX 8 8 0 -2
BITMAP
00
6E
D8
D8
DC
D8
D8
6E
ENDCHAR
STARTCHAR char333
ENCODING 333
SWIDTH 1000 0
DWIDTH 8 0
BBX 8 8 0 -2
BITMAP
00
00
00
6E
D8
DE
D8
6E
ENDCHAR
STARTCHAR char334
ENCODING 334
SWIDTH 1000 0
DWIDTH 8 0
BBX 8 8 0 -2
BITMAP
0C
18
FC
C6
FC
D8
CC
00
ENDCHAR
STARTCHAR char335
ENCODING 335
SWIDTH 1000 0
DWIDTH 8 0
BBX 8 8 0 -2
BITMAP
18
30
CE
F0
E0
C0
C0
00
ENDCHAR
STARTCHAR char336
ENCODING 336
SWIDTH 1000 0
DWIDTH 8 0
BBX 8 8 0 -2
BITMAP
FC
66
7E
6C
66
E6
18
70
ENDCHAR
STARTCHAR char337
ENCODING 337
SWIDTH 1000 0
DWIDTH 8 0
BBX 8 8 0 -2
BITMAP
00
00
DC
76
66
F0
30
E0
ENDCHAR
STARTCHAR char338
ENCODING 338
SWIDTH 1000 0
DWIDTH 8 0
BBX 8 8 0 -2
BITMAP
D8
70
FC
C6
FC
D8
CC
00
ENDCHAR
STARTCHAR char339
ENCODING 339
SWIDTH 1000 0
DWIDTH 8 0
BBX 8 8 0 -2
BITMAP
D8
70
CE
D8
E0
C0
C0
00
ENDCHAR
STARTCHAR char340
ENCODING 340
SWIDTH 1000 0
DWIDTH 8 0
BBX 8 8 0 -2
BITMAP
0C
18
7E
C0
7C
06
FC
00
ENDCHAR
STARTCHAR char341
ENCODING 341
SWIDTH 1000 0
DWIDTH 8 0
BBX 8 8 0 -2
BITMAP
0C
18
3E
60
3C
06
7C
00
ENDCHAR
STARTCHAR char342
ENCODING 342
SWIDTH 1000 0
DWIDTH 8 0
BBX 8 8 0 -2
BITMAP
7C
38
6C
60
38
CC
78
00
ENDCHAR
STARTCHAR char343
ENCODING 343
SWIDTH 1000 0
DWIDTH 8 0
BBX 8 8 0 -2
BITMAP
78
84
7C
C0
78
0C
F8
00
ENDCHAR
STARTCHAR char344
ENCODING 344
SWIDTH 1000 0
DWIDTH 8 0
BBX 8 8 0 -2
BITMAP
7C
C6
70
1C
C6
7C
18
30
ENDCHAR
STARTCHAR char345
ENCODING 345
SWIDTH 1000 0
DWIDTH 8 0
BBX 8 8 0 -2
BITMAP
00
7E
C0
7C
06
FC
30
60
ENDCHAR
STARTCHAR char346
ENCODING 346
SWIDTH 1000 0
DWIDTH 8 0
BBX 8 8 0 -2
BITMAP
6C
38
7E
E0
38
0E
FC
00
ENDCHAR
STARTCHAR char347
ENCODING 347
SWIDTH 1000 0
DWIDTH 8 0
BBX 8 8 0 -2
BITMAP
6C
38
7C
40
38
04
7C
00
ENDCHAR
STARTCHAR char348
ENCODING 348
SWIDTH 1000 0
DWIDTH 8 0
BBX 8 8 0 -2
BITMAP
7E
18
18
18
18
18
20
38
ENDCHAR
STARTCHAR char349
ENCODING 349
SWIDTH 1000 0
DWIDTH 8 0
BBX 8 8 0 -2
BITMAP
30
78
30
30
30
38
18
1E
ENDCHAR
STARTCHAR char350
ENCODING 350
SWIDTH 1000 0
DWIDTH 8 0
BBX 8 8 0 -2
BITMAP
CC
78
FC
30
30
30
30
00
ENDCHAR
STARTCHAR char351
ENCODING 351
SWIDTH 1000 0
DWIDTH 8 0
BBX 8 8 0 -2
BITMAP
CC
78
30
FC
30
30
1E
00
ENDCHAR
STARTCHAR char352
ENCODING 352
SWIDTH 1000 0
DWIDTH 8 0
BBX 8 8 0 -2
BITMAP
FC
30
3C
78
F0
30
30
00
ENDCHAR
STARTCHAR char353
ENCODING 353
SWIDTH 1000 0
DWIDTH 8 0
BBX 8 8 0 -2
BITMAP
10
30
7C
30
38
70
3C
00
ENDCHAR
STARTCHAR char354
ENCODING 354
SWIDTH 1000 0
DWIDTH 8 0
BBX 8 8 0 -2
BITMAP
76
DC
00
C6
C6
C6
7C
00
ENDCHAR
STARTCHAR char355
ENCODING 355
SWIDTH 1000 0
DWIDTH 8 0
BBX 8 8 0 -2
BITMAP
76
DC
00
CC
CC
CC
76
00
ENDCHAR
STARTCHAR char356
ENCODING 356
SWIDTH 1000 0
DWIDTH 8 0
BBX 8 8 0 -2
BITMAP
78
00
CC
CC
CC
CC
FC
00
ENDCHAR
STARTCHAR char357
ENCODING 357
SWIDTH 1000 0
DWIDTH 8 0
BBX 8 8 0 -2
BITMAP
78
00
CC
CC
CC
CC
76
00
ENDCHAR
STARTCHAR char358
ENCODING 358
SWIDTH 1000 0
DWIDTH 8 0
BBX 8 8 0 -2
BITMAP
C6
7C
00
C6
C6
C6
7C
00
ENDCHAR
STARTCHAR char359
ENCODING 359
SWIDTH 1000 0
DWIDTH 8 0
BBX 8 8 0 -2
BITMAP
CC
78
00
CC
CC
CC
76
00
ENDCHAR
STARTCHAR char360
ENCODING 360
SWIDTH 1000 0
DWIDTH 8 0
BBX 8 8 0 -2
BITMAP
10
28
D6
C6
C6
C6
7C
00
ENDCHAR
STARTCHAR char361
ENCODING 361
SWIDTH 1000 0
DWIDTH 8 0
BBX 8 8 0 -2
BITMAP
30
CC
30
CC
CC
CC
76
00
ENDCHAR
STARTCHAR char362
ENCODING 362
SWIDTH 1000 0
DWIDTH 8 0
BBX 8 8 0 -2
BITMAP
66
CC
C6
C6
C6
C6
7C
00
ENDCHAR
STARTCHAR char363
ENCODING 363
SWIDTH 1000 0
DWIDTH 8 0
BBX 8 8 0 -2
BITMAP
66
CC
00
CC
CC
CC
76
00
ENDCHAR
STARTCHAR char364
ENCODING 364
SWIDTH 1000 0
DWIDTH 8 0
BBX 8 8 0 -2
BITMAP
CC
CC
CC
CC
CC
78
30
1C
ENDCHAR
STARTCHAR char365
ENCODING 365
SWIDTH 1000 0
DWIDTH 8 0
BBX 8 8 0 -2
BITMAP
00
00
CC
CC
CC
7E
30
1C
ENDCHAR
STARTCHAR char366
ENCODING 366
SWIDTH 1000 0
DWIDTH 8 0
BBX 8 8 0 -2
BITMAP
66
00
66
66
3C
18
18
3C
ENDCHAR
STARTCHAR char367
ENCODING 367
SWIDTH 1000 0
DWIDTH 8 0
BBX 8 8 0 -2
BITMAP
0C
18
FE
0C
30
60
FE
00
ENDCHAR
STARTCHAR char368
ENCODING 368
SWIDTH 1000 0
DWIDTH 8 0
BBX 8 8 0 -2
BITMAP
0C
18
00
7E
0C
30
7E
00
ENDCHAR
STARTCHAR char369
ENCODING 369
SWIDTH 1000 0
DWIDTH 8 0
BBX 8 8 0 -2
BITMAP
18
FE
C6
0C
30
C6
FE
00
ENDCHAR
STARTCHAR char370
ENCODING 370
SWIDTH 1000 0
DWIDTH 8 0
BBX 8 8 0 -2
BITMAP
00
18
00
7C
18
30
7C
00
ENDCHAR
STARTCHAR char371
ENCODING 371
SWIDTH 1000 0
DWIDTH 8 0
BBX 8 8 0 -2
BITMAP
66
3C
FE
0C
18
60
FE
00
ENDCHAR
STARTCHAR char372
ENCODING 372
SWIDTH 1000 0
DWIDTH 8 0
BBX 8 8 0 -2
BITMAP
66
3C
00
7E
0C
30
7E
00
ENDCHAR
STARTCHAR char373
ENCODING 373
SWIDTH 1000 0
DWIDTH 8 0
BBX 8 8 0 -2
BITMAP
00
1C
36
30
FC
30
30
78
ENDCHAR
STARTCHAR char374
ENCODING 374
SWIDTH 1000 0
DWIDTH 8 0
BBX 8 8 0 -2
BITMAP
D8
70
00
00
00
00
00
00
ENDCHAR
STARTCHAR char375
ENCODING 375
SWIDTH 1000 0
DWIDTH 8 0
BBX 8 8 0 -2
BITMAP
C6
7C
00
00
00
00
00
00
ENDCHAR
STARTCHAR char376
ENCODING 376
SWIDTH 1000 0
DWIDTH 8 0
BBX 8 8 0 -2
BITMAP
18
00
00
00
00
00
00
00
ENDCHAR
STARTCHAR char377
ENCODING 377
SWIDTH 1000 0
DWIDTH 8 0
BBX 8 8 0 -2
BITMAP
00
00
00
00
00
00
10
1C
ENDCHAR
STARTCHAR char378
ENCODING 378
SWIDTH 1000 0
DWIDTH 8 0
BBX 8 8 0 -2
BITMAP
00
76
DC
00
00
00
00
00
ENDCHAR
STARTCHAR char379
ENCODING 379
SWIDTH 1000 0
DWIDTH 8 0
BBX 8 8 0 -2
BITMAP
66
CC
00
00
00
00
00
00
ENDCHAR
STARTCHAR char380
ENCODING 380
SWIDTH 1000 0
DWIDTH 8 0
BBX 8 8 0 -2
BITMAP
FC
30
38
3C
36
36
26
0C
ENDCHAR
STARTCHAR char381
ENCODING 381
SWIDTH 1000 0
DWIDTH 8 0
BBX 8 8 0 -2
BITMAP
18
FE
C0
C0
C0
C0
C0
00
ENDCHAR
STARTCHAR char382
ENCODING 382
SWIDTH 1000 0
DWIDTH 8 0
BBX 8 8 0 -2
BITMAP
7C
C6
C0
FC
C0
C6
7C
00
ENDCHAR
STARTCHAR char383
ENCODING 383
SWIDTH 1000 0
DWIDTH 8 0
BBX 8 8 0 -2
BITMAP
3C
6C
6C
6E
6A
EA
CE
00
ENDCHAR
STARTCHAR char384
ENCODING 384
SWIDTH 1000 0
DWIDTH 8 0
BBX 8 8 0 -2
BITMAP
D8
D8
DC
FE
DA
DA
DE
00
ENDCHAR
STARTCHAR char385
ENCODING 385
SWIDTH 1000 0
DWIDTH 8 0
BBX 8 8 0 -2
BITMAP
FC
30
38
3C
36
36
36
00
ENDCHAR
STARTCHAR char386
ENCODING 386
SWIDTH 1000 0
DWIDTH 8 0
BBX 8 8 0 -2
BITMAP
DA
D6
CC
F8
CC
C6
C6
00
ENDCHAR
STARTCHAR char387
ENCODING 387
SWIDTH 1000 0
DWIDTH 8 0
BBX 8 8 0 -2
BITMAP
D6
C6
C6
7E
06
C6
7C
00
ENDCHAR
STARTCHAR char388
ENCODING 388
SWIDTH 1000 0
DWIDTH 8 0
BBX 8 8 0 -2
BITMAP
C6
C6
C6
C6
C6
C6
FE
10
ENDCHAR
STARTCHAR char389
ENCODING 389
SWIDTH 1000 0
DWIDTH 8 0
BBX 8 8 0 -2
BITMAP
FC
C0
C0
FC
C6
C6
FC
00
ENDCHAR
STARTCHAR char390
ENCODING 390
SWIDTH 1000 0
DWIDTH 8 0
BBX 8 8 0 -2
BITMAP
3C
6C
6C
6C
6C
6C
FE
C6
ENDCHAR
STARTCHAR char391
ENCODING 391
SWIDTH 1000 0
DWIDTH 8 0
BBX 8 8 0 -2
BITMAP
D6
D6
7C
10
7C
D6
D6
00
ENDCHAR
STARTCHAR char392
ENCODING 392
SWIDTH 1000 0
DWIDTH 8 0
BBX 8 8 0 -2
BITMAP
3C
66
06
3C
06
C6
7C
00
ENDCHAR
STARTCHAR char393
ENCODING 393
SWIDTH 1000 0
DWIDTH 8 0
BBX 8 8 0 -2
BITMAP
C6
C6
CE
DE
F6
E6
C6
00
ENDCHAR
STARTCHAR char394
ENCODING 394
SWIDTH 1000 0
DWIDTH 8 0
BBX 8 8 0 -2
BITMAP
D6
C6
CE
DE
F6
E6
C6
00
ENDCHAR
STARTCHAR char395
ENCODING 395
SWIDTH 1000 0
DWIDTH 8 0
BBX 8 8 0 -2
BITMAP
3E
76
66
66
66
E6
C6
00
ENDCHAR
STARTCHAR char396
ENCODING 396
SWIDTH 1000 0
DWIDTH 8 0
BBX 8 8 0 -2
BITMAP
C6
C6
C6
7E
06
C6
7C
00
ENDCHAR
STARTCHAR char397
ENCODING 397
SWIDTH 1000 0
DWIDTH 8 0
BBX 8 8 0 -2
BITMAP
CC
CC
CC
CC
CC
CC
FE
06
ENDCHAR
STARTCHAR char398
ENCODING 398
SWIDTH 1000 0
DWIDTH 8 0
BBX 8 8 0 -2
BITMAP
C6
C6
C6
7E
06
06
06
00
ENDCHAR
STARTCHAR char399
ENCODING 399
SWIDTH 1000 0
DWIDTH 8 0
BBX 8 8 0 -2
BITMAP
D6
D6
D6
D6
D6
D6
FE
00
ENDCHAR
STARTCHAR char400
ENCODING 400
SWIDTH 1000 0
DWIDTH 8 0
BBX 8 8 0 -2
BITMAP
D6
D6
D6
D6
D6
D6
FE
06
ENDCHAR
STARTCHAR char401
ENCODING 401
SWIDTH 1000 0
DWIDTH 8 0
BBX 8 8 0 -2
BITMAP
F0
30
38
3C
36
36
3C
00
ENDCHAR
STARTCHAR char402
ENCODING 402
SWIDTH 1000 0
DWIDTH 8 0
BBX 8 8 0 -2
BITMAP
C2
C2
E2
F2
DA
DA
F2
00
ENDCHAR
STARTCHAR char403
ENCODING 403
SWIDTH 1000 0
DWIDTH 8 0
BBX 8 8 0 -2
BITMAP
C0
C0
F0
D8
CC
CC
F8
00
ENDCHAR
STARTCHAR char404
ENCODING 404
SWIDTH 1000 0
DWIDTH 8 0
BBX 8 8 0 -2
BITMAP
7C
C6
06
7E
06
C6
7C
00
ENDCHAR
STARTCHAR char405
ENCODING 405
SWIDTH 1000 0
DWIDTH 8 0
BBX 8 8 0 -2
BITMAP
9C
B6
B6
F6
B6
B6
9C
00
ENDCHAR
STARTCHAR char406
ENCODING 406
SWIDTH 1000 0
DWIDTH 8 0
BBX 8 8 0 -2
BITMAP
7E
C6
C6
7E
36
E6
C6
00
ENDCHAR
STARTCHAR char407
ENCODING 407
SWIDTH 1000 0
DWIDTH 8 0
BBX 8 8 0 -2
BITMAP
0C
38
E0
F8
CC
CC
78
00
ENDCHAR
STARTCHAR char408
ENCODING 408
SWIDTH 1000 0
DWIDTH 8 0
BBX 8 8 0 -2
BITMAP
00
00
FC
CC
FC
C6
FC
00
ENDCHAR
STARTCHAR char409
ENCODING 409
SWIDTH 1000 0
DWIDTH 8 0
BBX 8 8 0 -2
BITMAP
00
00
FE
C0
C0
C0
C0
00
ENDCHAR
STARTCHAR char410
ENCODING 410
SWIDTH 1000 0
DWIDTH 8 0
BBX 8 8 0 -2
BITMAP
00
00
3C
6C
6C
6C
FE
C6
ENDCHAR
STARTCHAR char411
ENCODING 411
SWIDTH 1000 0
DWIDTH 8 0
BBX 8 8 0 -2
BITMAP
00
00
D6
7C
10
7C
D6
00
ENDCHAR
STARTCHAR char412
ENCODING 412
SWIDTH 1000 0
DWIDTH 8 0
BBX 8 8 0 -2
BITMAP
00
00
7C
C6
1C
C6
7C
00
ENDCHAR
STARTCHAR char413
ENCODING 413
SWIDTH 1000 0
DWIDTH 8 0
BBX 8 8 0 -2
BITMAP
00
00
C6
C6
DE
F6
C6
00
ENDCHAR
STARTCHAR char414
ENCODING 414
SWIDTH 1000 0
DWIDTH 8 0
BBX 8 8 0 -2
BITMAP
38
10
C6
C6
DE
F6
C6
00
ENDCHAR
STARTCHAR char415
ENCODING 415
SWIDTH 1000 0
DWIDTH 8 0
BBX 8 8 0 -2
BITMAP
00
00
C6
CC
F8
CC
C6
00
ENDCHAR
STARTCHAR char416
ENCODING 416
SWIDTH 1000 0
DWIDTH 8 0
BBX 8 8 0 -2
BITMAP
00
00
3E
76
66
E6
C6
00
ENDCHAR
STARTCHAR char417
ENCODING 417
SWIDTH 1000 0
DWIDTH 8 0
BBX 8 8 0 -2
BITMAP
00
00
C6
EE
FE
D6
C6
00
ENDCHAR
STARTCHAR char418
ENCODING 418
SWIDTH 1000 0
DWIDTH 8 0
BBX 8 8 0 -2
BITMAP
00
00
CC
CC
FC
CC
CC
00
ENDCHAR
STARTCHAR char419
ENCODING 419
SWIDTH 1000 0
DWIDTH 8 0
BBX 8 8 0 -2
BITMAP
00
00
FE
C6
C6
C6
C6
00
ENDCHAR
STARTCHAR char420
ENCODING 420
SWIDTH 1000 0
DWIDTH 8 0
BBX 8 8 0 -2
BITMAP
00
00
7E
7E
18
18
18
00
ENDCHAR
STARTCHAR char421
ENCODING 421
SWIDTH 1000 0
DWIDTH 8 0
BBX 8 8 0 -2
BITMAP
38
10
7C
D6
D6
7C
10
38
ENDCHAR
STARTCHAR char422
ENCODING 422
SWIDTH 1000 0
DWIDTH 8 0
BBX 8 8 0 -2
BITMAP
00
00
CC
CC
CC
CC
FE
06
ENDCHAR
STARTCHAR char423
ENCODING 423
SWIDTH 1000 0
DWIDTH 8 0
BBX 8 8 0 -2
BITMAP
00
00
C6
C6
7E
06
06
00
ENDCHAR
STARTCHAR char424
ENCODING 424
SWIDTH 1000 0
DWIDTH 8 0
BBX 8 8 0 -2
BITMAP
00
00
D6
D6
D6
D6
FE
00
ENDCHAR
STARTCHAR char425
ENCODING 425
SWIDTH 1000 0
DWIDTH 8 0
BBX 8 8 0 -2
BITMAP
00
00
D6
D6
D6
D6
FE
06
ENDCHAR
STARTCHAR char426
ENCODING 426
SWIDTH 1000 0
DWIDTH 8 0
BBX 8 8 0 -2
BITMAP
00
00
F0
30
3C
36
3C
00
ENDCHAR
STARTCHAR char427
ENCODING 427
SWIDTH 1000 0
DWIDTH 8 0
BBX 8 8 0 -2
BITMAP
00
00
C2
C2
F2
DA
F2
00
ENDCHAR
STARTCHAR char428
ENCODING 428
SWIDTH 1000 0
DWIDTH 8 0
BBX 8 8 0 -2
BITMAP
00
00
C0
C0
FC
C6
FC
00
ENDCHAR
STARTCHAR char429
ENCODING 429
SWIDTH 1000 0
DWIDTH 8 0
BBX 8 8 0 -2
BITMAP
00
00
7C
C6
1E
C6
7C
00
ENDCHAR
STARTCHAR char430
ENCODING 430
SWIDTH 1000 0
DWIDTH 8 0
BBX 8 8 0 -2
BITMAP
00
00
9C
B6
F6
B6
9C
00
ENDCHAR
STARTCHAR char431
ENCODING 431
SWIDTH 1000 0
DWIDTH 8 0
BBX 8 8 0 -2
BITMAP
00
00
7E
C6
7E
36
E6
00
ENDCHAR
STARTCHAR char432
ENCODING 432
SWIDTH 1000 0
DWIDTH 8 0
BBX 8 8 0 -2
BITMAP
00
00
FC
30
3C
36
26
0C
ENDCHAR
STARTCHAR char433
ENCODING 433
SWIDTH 1000 0
DWIDTH 8 0
BBX 8 8 0 -2
BITMAP
0C
18
FE
C0
C0
C0
C0
00
ENDCHAR
STARTCHAR char434
ENCODING 434
SWIDTH 1000 0
DWIDTH 8 0
BBX 8 8 0 -2
BITMAP
00
00
7C
C6
F0
C6
7C
00
ENDCHAR
STARTCHAR char435
ENCODING 435
SWIDTH 1000 0
DWIDTH 8 0
BBX 8 8 0 -2
BITMAP
00
00
3C
6C
6E
EA
CE
00
ENDCHAR
STARTCHAR char436
ENCODING 436
SWIDTH 1000 0
DWIDTH 8 0
BBX 8 8 0 -2
BITMAP
00
00
D8
D8
FE
DA
DE
00
ENDCHAR
STARTCHAR char437
ENCODING 437
SWIDTH 1000 0
DWIDTH 8 0
BBX 8 8 0 -2
BITMAP
00
00
FC
30
3C
36
36
00
ENDCHAR
STARTCHAR char438
ENCODING 438
SWIDTH 1000 0
DWIDTH 8 0
BBX 8 8 0 -2
BITMAP
D8
D0
C6
CC
F8
CC
C6
00
ENDCHAR
STARTCHAR char439
ENCODING 439
SWIDTH 1000 0
DWIDTH 8 0
BBX 8 8 0 -2
BITMAP
6C
10
C6
C6
7E
06
C6
7C
ENDCHAR
STARTCHAR char440
ENCODING 440
SWIDTH 1000 0
DWIDTH 8 0
BBX 8 8 0 -2
BITMAP
00
00
C6
C6
C6
C6
FE
10
ENDCHAR
STARTCHAR char441
ENCODING 441
SWIDTH 1000 0
DWIDTH 8 0
BBX 8 8 0 -2
BITMAP
0C
FC
C0
C0
C0
C0
C0
00
ENDCHAR
STARTCHAR char442
ENCODING 442
SWIDTH 1000 0
DWIDTH 8 0
BBX 8 8 0 -2
BITMAP
04
0C
FC
C0
C0
C0
C0
00
ENDCHAR
STARTCHAR char443
ENCODING 443
SWIDTH 1000 0
DWIDTH 8 0
BBX 8 8 0 -2
BITMAP
00
C6
66
76
DC
CC
C6
00
ENDCHAR
STARTCHAR char444
ENCODING 444
SWIDTH 1000 0
DWIDTH 8 0
BBX 8 8 0 -2
BITMAP
00
F8
0C
0C
0C
0C
FE
00
ENDCHAR
STARTCHAR char445
ENCODING 445
SWIDTH 1000 0
DWIDTH 8 0
BBX 8 8 0 -2
BITMAP
00
38
0C
0C
1C
34
E6
00
ENDCHAR
STARTCHAR char446
ENCODING 446
SWIDTH 1000 0
DWIDTH 8 0
BBX 8 8 0 -2
BITMAP
00
FE
0C
0C
0C
0C
0C
00
ENDCHAR
STARTCHAR char447
ENCODING 447
SWIDTH 1000 0
DWIDTH 8 0
BBX 8 8 0 -2
BITMAP
00
FC
06
06
C6
C6
C6
00
ENDCHAR
STARTCHAR char448
ENCODING 448
SWIDTH 1000 0
DWIDTH 8 0
BBX 8 8 0 -2
BITMAP
00
70
18
18
18
18
18
00
ENDCHAR
STARTCHAR char449
ENCODING 449
SWIDTH 1000 0
DWIDTH 8 0
BBX 8 8 0 -2
BITMAP
00
3C
18
18
0C
18
30
00
ENDCHAR
STARTCHAR char450
ENCODING 450
SWIDTH 1000 0
DWIDTH 8 0
BBX 8 8 0 -2
BITMAP
00
FC
66
C6
C6
C6
C6
00
ENDCHAR
STARTCHAR char451
ENCODING 451
SWIDTH 1000 0
DWIDTH 8 0
BBX 8 8 0 -2
BITMAP
00
CC
D6
D6
C6
CC
78
00
ENDCHAR
STARTCHAR char452
ENCODING 452
SWIDTH 1000 0
DWIDTH 8 0
BBX 8 8 0 -2
BITMAP
00
38
0C
0C
18
00
00
00
ENDCHAR
STARTCHAR char453
ENCODING 453
SWIDTH 1000 0
DWIDTH 8 0
BBX 8 8 0 -2
BITMAP
00
FC
06
06
0C
0C
0C
0E
ENDCHAR
STARTCHAR char454
ENCODING 454
SWIDTH 1000 0
DWIDTH 8 0
BBX 8 8 0 -2
BITMAP
00
FC
06
06
06
06
FC
00
ENDCHAR
STARTCHAR char455
ENCODING 455
SWIDTH 1000 0
DWIDTH 8 0
BBX 8 8 0 -2
BITMAP
C0
FC
06
06
0C
18
18
00
ENDCHAR
STARTCHAR char456
ENCODING 456
SWIDTH 1000 0
DWIDTH 8 0
BBX 8 8 0 -2
BITMAP
00
FC
66
C6
C6
C6
FE
00
ENDCHAR
STARTCHAR char457
ENCODING 457
SWIDTH 1000 0
DWIDTH 8 0
BBX 8 8 0 -2
BITMAP
00
DC
76
66
C6
C6
DE
00
ENDCHAR
STARTCHAR char458
ENCODING 458
SWIDTH 1000 0
DWIDTH 8 0
BBX 8 8 0 -2
BITMAP
00
38
0C
18
18
18
18
1C
ENDCHAR
STARTCHAR char459
ENCODING 459
SWIDTH 1000 0
DWIDTH 8 0
BBX 8 8 0 -2
BITMAP
00
38
0C
0C
0C
0C
7C
00
ENDCHAR
STARTCHAR char460
ENCODING 460
SWIDTH 1000 0
DWIDTH 8 0
BBX 8 8 0 -2
BITMAP
00
FC
66
C6
C6
CC
78
00
ENDCHAR
STARTCHAR char461
ENCODING 461
SWIDTH 1000 0
DWIDTH 8 0
BBX 8 8 0 -2
BITMAP
00
66
66
66
66
36
FC
00
ENDCHAR
STARTCHAR char462
ENCODING 462
SWIDTH 1000 0
DWIDTH 8 0
BBX 8 8 0 -2
BITMAP
00
F8
4C
CC
EC
0C
0C
0E
ENDCHAR
STARTCHAR char463
ENCODING 463
SWIDTH 1000 0
DWIDTH 8 0
BBX 8 8 0 -2
BITMAP
00
FC
46
C6
E6
06
FE
00
ENDCHAR
STARTCHAR char464
ENCODING 464
SWIDTH 1000 0
DWIDTH 8 0
BBX 8 8 0 -2
BITMAP
00
66
66
66
7C
60
60
70
ENDCHAR
STARTCHAR char465
ENCODING 465
SWIDTH 1000 0
DWIDTH 8 0
BBX 8 8 0 -2
BITMAP
00
66
36
1C
0C
06
7E
00
ENDCHAR
STARTCHAR char466
ENCODING 466
SWIDTH 1000 0
DWIDTH 8 0
BBX 8 8 0 -2
BITMAP
00
FC
06
66
6C
6E
60
60
ENDCHAR
STARTCHAR char467
ENCODING 467
SWIDTH 1000 0
DWIDTH 8 0
BBX 8 8 0 -2
BITMAP
00
FC
06
06
06
06
06
00
ENDCHAR
STARTCHAR char468
ENCODING 468
SWIDTH 1000 0
DWIDTH 8 0
BBX 8 8 0 -2
BITMAP
00
D6
D6
D6
F6
C6
7C
00
ENDCHAR
STARTCHAR char469
ENCODING 469
SWIDTH 1000 0
DWIDTH 8 0
BBX 8 8 0 -2
BITMAP
00
FC
66
66
66
E6
E6
00
ENDCHAR
STARTCHAR char470
ENCODING 470
SWIDTH 1000 0
DWIDTH 8 0
BBX 8 8 0 -2
BITMAP
00
00
00
08
10
18
00
00
ENDCHAR
STARTCHAR char471
ENCODING 471
SWIDTH 1000 0
DWIDTH 8 0
BBX 8 8 0 -2
BITMAP
00
08
10
18
00
18
00
00
ENDCHAR
STARTCHAR char472
ENCODING 472
SWIDTH 1000 0
DWIDTH 8 0
BBX 8 8 0 -2
BITMAP
00
1C
22
10
08
00
08
00
ENDCHAR
STARTCHAR char473
ENCODING 473
SWIDTH 1000 0
DWIDTH 8 0
BBX 8 8 0 -2
BITMAP
00
00
0E
10
0C
10
00
00
ENDCHAR
STARTCHAR char474
ENCODING 474
SWIDTH 1000 0
DWIDTH 8 0
BBX 8 8 0 -2
BITMAP
1E
20
04
04
04
04
00
00
ENDCHAR
STARTCHAR char475
ENCODING 475
SWIDTH 1000 0
DWIDTH 8 0
BBX 8 8 0 -2
BITMAP
18
22
12
22
02
02
00
00
ENDCHAR
STARTCHAR char476
ENCODING 476
SWIDTH 1000 0
DWIDTH 8 0
BBX 8 8 0 -2
BITMAP
00
02
02
1A
22
12
20
00
ENDCHAR
STARTCHAR char477
ENCODING 477
SWIDTH 1000 0
DWIDTH 8 0
BBX 8 8 0 -2
BITMAP
06
04
02
04
30
B8
84
78
ENDCHAR
STARTCHAR char478
ENCODING 478
SWIDTH 1000 0
DWIDTH 8 0
BBX 8 8 0 -2
BITMAP
10
18
10
10
10
10
00
00
ENDCHAR
STARTCHAR char479
ENCODING 479
SWIDTH 1000 0
DWIDTH 8 0
BBX 8 8 0 -2
BITMAP
06
1C
30
06
1C
30
00
00
ENDCHAR
STARTCHAR char480
ENCODING 480
SWIDTH 1000 0
DWIDTH 8 0
BBX 8 8 0 -2
BITMAP
36
36
12
24
00
00
00
00
ENDCHAR
STARTCHAR char481
ENCODING 481
SWIDTH 1000 0
DWIDTH 8 0
BBX 8 8 0 -2
BITMAP
00
00
06
1C
30
06
1C
30
ENDCHAR
STARTCHAR char482
ENCODING 482
SWIDTH 1000 0
DWIDTH 8 0
BBX 8 8 0 -2
BITMAP
06
1C
30
00
00
00
00
00
ENDCHAR
STARTCHAR char483
ENCODING 483
SWIDTH 1000 0
DWIDTH 8 0
BBX 8 8 0 -2
BITMAP
18
18
08
10
00
00
00
00
ENDCHAR
STARTCHAR char484
ENCODING 484
SWIDTH 1000 0
DWIDTH 8 0
BBX 8 8 0 -2
BITMAP
00
00
00
00
00
06
1C
30
ENDCHAR
STARTCHAR char485
ENCODING 485
SWIDTH 1000 0
DWIDTH 8 0
BBX 8 8 0 -2
BITMAP
00
00
00
00
FE
00
00
00
ENDCHAR
STARTCHAR char486
ENCODING 486
SWIDTH 1000 0
DWIDTH 8 0
BBX 8 8 0 -2
BITMAP
00
38
30
18
00
00
00
00
ENDCHAR
STARTCHAR char487
ENCODING 487
SWIDTH 1000 0
DWIDTH 8 0
BBX 8 8 0 -2
BITMAP
00
38
18
70
00
00
00
00
ENDCHAR
STARTCHAR char488
ENCODING 488
SWIDTH 1000 0
DWIDTH 8 0
BBX 8 8 0 -2
BITMAP
00
00
00
00
00
38
18
70
ENDCHAR
STARTCHAR char489
ENCODING 489
SWIDTH 1000 0
DWIDTH 8 0
BBX 8 8 0 -2
BITMAP
00
38
30
18
00
00
00
00
ENDCHAR
STARTCHAR char490
ENCODING 490
SWIDTH 1000 0
DWIDTH 8 0
BBX 8 8 0 -2
BITMAP
66
CC
EE
00
00
00
00
00
ENDCHAR
STARTCHAR char491
ENCODING 491
SWIDTH 1000 0
DWIDTH 8 0
BBX 8 8 0 -2
BITMAP
00
EE
66
CC
00
00
00
00
ENDCHAR
STARTCHAR char492
ENCODING 492
SWIDTH 1000 0
DWIDTH 8 0
BBX 8 8 0 -2
BITMAP
00
00
00
00
00
EE
66
CC
ENDCHAR
STARTCHAR char493
ENCODING 493
SWIDTH 1000 0
DWIDTH 8 0
BBX 8 8 0 -2
BITMAP
00
EE
66
CC
00
00
00
00
ENDCHAR
STARTCHAR char494
ENCODING 494
SWIDTH 1000 0
DWIDTH 8 0
BBX 8 8 0 -2
BITMAP
00
00
18
3C
3C
18
00
00
ENDCHAR
STARTCHAR char495
ENCODING 495
SWIDTH 1000 0
DWIDTH 8 0
BBX 8 8 0 -2
BITMAP
00
00
18
30
60
30
18
00
ENDCHAR
STARTCHAR char496
ENCODING 496
SWIDTH 1000 0
DWIDTH 8 0
BBX 8 8 0 -2
BITMAP
00
00
30
18
0C
18
30
00
ENDCHAR
STARTCHAR char497
ENCODING 497
SWIDTH 1000 0
DWIDTH 8 0
BBX 8 8 0 -2
BITMAP
1E
9E
D8
FA
D8
D8
D8
00
ENDCHAR
STARTCHAR char498
ENCODING 498
SWIDTH 1000 0
DWIDTH 8 0
BBX 8 8 0 -2
BITMAP
00
00
64
98
00
64
98
00
ENDCHAR
STARTCHAR char499
ENCODING 499
SWIDTH 1000 0
DWIDTH 8 0
BBX 8 8 0 -2
BITMAP
A0
D0
90
90
90
00
00
00
ENDCHAR
STARTCHAR char500
ENCODING 500
SWIDTH 1000 0
DWIDTH 8 0
BBX 8 8 0 -2
BITMAP
66
66
66
66
66
00
66
00
ENDCHAR
STARTCHAR char501
ENCODING 501
SWIDTH 1000 0
DWIDTH 8 0
BBX 8 8 0 -2
BITMAP
00
00
00
30
30
00
00
00
ENDCHAR
STARTCHAR char502
ENCODING 502
SWIDTH 1000 0
DWIDTH 8 0
BBX 8 8 0 -2
BITMAP
08
14
10
10
10
10
10
10
ENDCHAR
STARTCHAR char503
ENCODING 503
SWIDTH 1000 0
DWIDTH 8 0
BBX 8 8 0 -2
BITMAP
10
10
10
10
10
50
20
00
ENDCHAR
STARTCHAR char504
ENCODING 504
SWIDTH 1000 0
DWIDTH 8 0
BBX 8 8 0 -2
BITMAP
18
18
18
18
F8
00
00
00
ENDCHAR
STARTCHAR char505
ENCODING 505
SWIDTH 1000 0
DWIDTH 8 0
BBX 8 8 0 -2
BITMAP
18
3C
7E
18
18
7E
3C
18
ENDCHAR
STARTCHAR char506
ENCODING 506
SWIDTH 1000 0
DWIDTH 8 0
BBX 8 8 0 -2
BITMAP
00
00
C0
C0
C0
FE
00
00
ENDCHAR
STARTCHAR char507
ENCODING 507
SWIDTH 1000 0
DWIDTH 8 0
BBX 8 8 0 -2
BITMAP
00
10
38
6C
C6
C6
FE
00
ENDCHAR
STARTCHAR char508
ENCODING 508
SWIDTH 1000 0
DWIDTH 8 0
BBX 8 8 0 -2
BITMAP
3C
66
66
66
3C
18
7E
18
ENDCHAR
STARTCHAR char509
ENCODING 509
SWIDTH 1000 0
DWIDTH 8 0
BBX 8 8 0 -2
BITMAP
10
38
7C
FE
FE
7C
10
38
ENDCHAR
STARTCHAR char510
ENCODING 510
SWIDTH 1000 0
DWIDTH 8 0
BBX 8 8 0 -2
BITMAP
38
7C
38
FE
FE
D6
10
38
ENDCHAR
STARTCHAR char511
ENCODING 511
SWIDTH 1000 0
DWIDTH 8 0
BBX 8 8 0 -2
BITMAP
6C
FE
FE
FE
7C
38
10
00
ENDCHAR
ENDFONT
